<?xml version="1.0" standalone="no"?>
<!DOCTYPE svg PUBLIC "-//W3C//DTD SVG 1.1//EN" "http://www.w3.org/Graphics/SVG/1.1/DTD/svg11.dtd" >
<svg xmlns="http://www.w3.org/2000/svg" xmlns:xlink="http://www.w3.org/1999/xlink" version="1.1">
<metadata>
Created by FontForge 20170731 at Fri Jun 30 08:41:32 2017
 By Aleksey,,,
Copyright (C) June 2017, Worawut Thanawatanawanich. All rights reserved.
</metadata>
<defs>
<font id="SOV_monomon" horiz-adv-x="560" >
  <font-face 
    font-family="SOV_monomon"
    font-weight="400"
    font-stretch="normal"
    units-per-em="1000"
    panose-1="2 11 5 9 2 0 0 2 0 4"
    ascent="800"
    descent="-200"
    x-height="500"
    cap-height="640"
    bbox="-523 -347 584 994"
    underline-thickness="30"
    underline-position="-80"
    unicode-range="U+0020-F751"
  />
<missing-glyph 
d="M16 402v-381h242v381h-242zM274 0h-274v423h274v-423z" />
    <glyph glyph-name="uniF726" unicode="&#xe0e;&#xe38;" 
d="M120 500h160q80 0 137 -43q63 -47 63 -117v-314q2 -14 -4.5 -25.5t-18.5 -17.5h-1q-11 -5 -22.5 -3t-20.5 10l-86 57l-43 -49q-6 -8 -15 -13q-12 -7 -26 -5h-163q-17 0 -29 11.5t-12 28.5t12 28.5t29 11.5h152l54 61q9 16 27 19h8q15 0 27 -10l52 -35v245q0 30 -31 53
q-36 27 -89 27h-80v-200q0 -48 -20 -78q-12 -19 -34 -30.5t-46 -11.5h-3q-22 1 -39 18q-18 18 -18 42q0 17 11.5 28.5t27.5 12.5q21 0 33 -17l1 1q7 11 7 35v200q-17 0 -29 11.5t-12 28.5t12 28.5t29 11.5zM319 -39h1q17 0 28 -12q12 -12 12 -28v-1v-80v-1q0 -16 -12 -28
q-11 -12 -28 -12t-28 12q-12 12 -12 28v1v60h-10q-13 0 -22 9q-8 9 -8 21t8 21q9 9 22 9h40h3q3 0 6 1z" />
    <glyph glyph-name="uniF727" unicode="&#xe31;&#xe48;" horiz-adv-x="0" 
d="M-240 800q12 0 21 -8.5t9 -21.5v-100q0 -13 -9 -21.5t-21 -8.5t-21 8.5t-9 21.5v100q0 13 8.5 21.5t21.5 8.5zM-401 681h1q17 0 28.5 -12t11.5 -28v-1v-20h200h1q16 0 28 -11.5t12 -28.5t-12 -28.5t-28 -11.5h-1h-234q-3 -1 -6 -1q-16 0 -28 12q-1 0 -1 1q-12 12 -12 28
q0 3 1 6v54v1q0 16 11.5 27.5t27.5 12.5z" />
    <glyph glyph-name="uniF728" unicode="&#xe31;&#xe49;" horiz-adv-x="0" 
d="M-290 800q12 0 21 -8q0 -1 1 -1q8 -9 8 -21v-5v-62q39 7 74 29.5t49 50.5q8 16 26 17h1q13 0 21.5 -8.5t8.5 -21.5q0 -7 -3 -13q-27 -53 -83 -84.5t-119 -32.5h-5q-12 0 -21 8q0 1 -1 1q-8 9 -8 21v5v65h-10q-13 0 -21.5 9t-8.5 21t8.5 21t21.5 9h35h5zM-401 681h1
q17 0 28.5 -12t11.5 -28v-1v-20h200h1q16 0 28 -11.5t12 -28.5t-12 -28.5t-28 -11.5h-1h-234q-3 -1 -6 -1q-16 0 -28 12q-1 0 -1 1q-12 12 -12 28q0 3 1 6v54v1q0 16 11.5 27.5t27.5 12.5z" />
    <glyph glyph-name="uniF729" unicode="&#xe31;&#xe4a;" horiz-adv-x="0" 
d="M-290 800q15 1 24 -11l16 -17l16 16q9 12 24 12q7 1 13 -3h1q8 -4 12.5 -12.5t3.5 -18.5v-61q11 4 19 11q21 19 21 54q0 12 8.5 21t21.5 9q12 1 21 -8t9 -22q0 -63 -42 -99q-31 -27 -83 -31q-17 -1 -26 8q0 1 -1 1q-8 8 -8 26v30l-10 -5l-10 5v-35q0 -13 -8.5 -21.5
t-21.5 -8.5t-21.5 8.5t-8.5 21.5v96q-1 10 3.5 18.5t13.5 13.5q6 2 13 2zM-401 681h1q17 0 28.5 -12t11.5 -28v-1v-20h200h1q16 0 28 -11.5t12 -28.5t-12 -28.5t-28 -11.5h-1h-234q-3 -1 -6 -1q-16 0 -28 12q-1 0 -1 1q-12 12 -12 28q0 3 1 6v54v1q0 16 11.5 27.5t27.5 12.5
z" />
    <glyph glyph-name="uniF72A" unicode="&#xe31;&#xe4b;" horiz-adv-x="0" 
d="M-240 800q12 0 21 -8.5t9 -21.5v-20h20q13 0 21.5 -9t8.5 -21t-8.5 -21t-21.5 -9h-20v-20q0 -13 -9 -21.5t-21 -8.5t-21 8.5t-9 21.5v20h-20q-13 0 -21.5 9t-8.5 21t8.5 21t21.5 9h20v20q0 13 8.5 21.5t21.5 8.5zM-401 681h1q17 0 28.5 -12t11.5 -28v-1v-20h200h1
q16 0 28 -11.5t12 -28.5t-12 -28.5t-28 -11.5h-1h-234q-3 -1 -6 -1q-16 0 -28 12q-1 0 -1 1q-12 12 -12 28q0 3 1 6v54v1q0 16 11.5 27.5t27.5 12.5z" />
    <glyph glyph-name="uniF72B" unicode="&#xe34;&#xe48;" horiz-adv-x="0" 
d="M-360 620h200h1q16 0 28 -11.5t12 -28.5t-12 -28.5t-28 -11.5h-1h-200h-1q-16 0 -28 11.5t-12 28.5t12 28.5t28 11.5h1zM-240 800q12 0 21 -8.5t9 -21.5v-100q0 -13 -9 -21.5t-21 -8.5t-21 8.5t-9 21.5v100q0 13 8.5 21.5t21.5 8.5z" />
    <glyph glyph-name="uniF72C" unicode="&#xe34;&#xe49;" horiz-adv-x="0" 
d="M-360 620h200h1q16 0 28 -11.5t12 -28.5t-12 -28.5t-28 -11.5h-1h-200h-1q-16 0 -28 11.5t-12 28.5t12 28.5t28 11.5h1zM-290 800q12 0 21 -8q0 -1 1 -1q8 -9 8 -21v-5v-62q39 7 74 29.5t49 50.5q8 16 26 17h1q13 0 21.5 -8.5t8.5 -21.5q0 -7 -3 -13q-27 -53 -83 -84.5
t-119 -32.5h-5q-12 0 -21 8q0 1 -1 1q-8 9 -8 21v5v65h-10q-13 0 -21.5 9t-8.5 21t8.5 21t21.5 9h35h5z" />
    <glyph glyph-name="uniF72D" unicode="&#xe34;&#xe4a;" horiz-adv-x="0" 
d="M-360 620h200h1q16 0 28 -11.5t12 -28.5t-12 -28.5t-28 -11.5h-1h-200h-1q-16 0 -28 11.5t-12 28.5t12 28.5t28 11.5h1zM-290 800q15 1 24 -11l16 -17l16 16q9 12 24 12q7 1 13 -3h1q8 -4 12.5 -12.5t3.5 -18.5v-61q11 4 19 11q21 19 21 54q0 12 8.5 21t21.5 9
q12 1 21 -8t9 -22q0 -63 -42 -99q-31 -27 -83 -31q-17 -1 -26 8q0 1 -1 1q-8 8 -8 26v30l-10 -5l-10 5v-35q0 -13 -8.5 -21.5t-21.5 -8.5t-21.5 8.5t-8.5 21.5v96q-1 10 3.5 18.5t13.5 13.5q6 2 13 2z" />
    <glyph glyph-name="uniF72E" unicode="&#xe34;&#xe4b;" horiz-adv-x="0" 
d="M-360 620h200h1q16 0 28 -11.5t12 -28.5t-12 -28.5t-28 -11.5h-1h-200h-1q-16 0 -28 11.5t-12 28.5t12 28.5t28 11.5h1zM-240 800q12 0 21 -8.5t9 -21.5v-20h20q13 0 21.5 -9t8.5 -21t-8.5 -21t-21.5 -9h-20v-20q0 -13 -9 -21.5t-21 -8.5t-21 8.5t-9 21.5v20h-20
q-13 0 -21.5 9t-8.5 21t8.5 21t21.5 9h20v20q0 13 8.5 21.5t21.5 8.5z" />
    <glyph glyph-name="uniF72F" unicode="&#xe34;&#xe4c;" horiz-adv-x="0" 
d="M-360 620h200h1q16 0 28 -11.5t12 -28.5t-12 -28.5t-28 -11.5h-1h-200h-1q-16 0 -28 11.5t-12 28.5t12 28.5t28 11.5h1zM-149 800q12 0 20.5 -9t8.5 -21q0 -11 -7.5 -20t-18.5 -10q-25 -3 -46 -18q-7 -6 -12 -11q14 -9 14 -26q0 -9 -7 -19.5t-16 -13.5q-13 -5 -28 1
q-11 4 -19.5 14.5t-9.5 24.5v0v3v1v1q1 42 42 73q33 25 74 30h4h1z" />
    <glyph glyph-name="uniF730" unicode="&#xe4d;&#xe48;" horiz-adv-x="0" 
d="M-240 680q33 0 56.5 -23.5t23.5 -56.5t-23.5 -56.5t-56.5 -23.5t-56.5 23.5t-23.5 56.5t23.5 56.5t56.5 23.5zM-240 620q-9 0 -14.5 -5.5t-5.5 -14.5t5.5 -14.5t14.5 -5.5t14.5 5.5t5.5 14.5t-5.5 14.5t-14.5 5.5zM-230 800q12 0 21 -8.5t9 -21.5v-40q0 -13 -9 -21.5
t-21 -8.5t-21 8.5t-9 21.5v40q0 13 8.5 21.5t21.5 8.5z" />
    <glyph glyph-name="uniF731" unicode="&#xe4d;&#xe49;" horiz-adv-x="0" 
d="M-240 680q33 0 56.5 -23.5t23.5 -56.5t-23.5 -56.5t-56.5 -23.5t-56.5 23.5t-23.5 56.5t23.5 56.5t56.5 23.5zM-240 620q-9 0 -14.5 -5.5t-5.5 -14.5t5.5 -14.5t14.5 -5.5t14.5 5.5t5.5 14.5t-5.5 14.5t-14.5 5.5zM-250 800q12 0 21 -8q0 -1 1 -1q8 -9 8 -21v-5v-6
q28 0 42 2q30 4 42 24q9 15 26 15h1q12 0 20.5 -9t8.5 -21q0 -8 -4 -15q-27 -45 -85 -53q-18 -3 -76 -2h-5q-13 0 -22 9q-8 9 -8 21v5v5h-10q-13 0 -21.5 9t-8.5 21t8.5 21t21.5 9h35h5z" />
    <glyph glyph-name="uniF732" unicode="&#xe4d;&#xe4a;" horiz-adv-x="0" 
d="M-240 680q33 0 56.5 -23.5t23.5 -56.5t-23.5 -56.5t-56.5 -23.5t-56.5 23.5t-23.5 56.5t23.5 56.5t56.5 23.5zM-240 620q-9 0 -14.5 -5.5t-5.5 -14.5t5.5 -14.5t14.5 -5.5t14.5 5.5t5.5 14.5t-5.5 14.5t-14.5 5.5zM-290 800q9 1 17 -5l23 -11l23 11q7 5 16.5 5.5
t17.5 -5.5v0q1 0 2 -1q14 -11 11 -28v-4q26 4 40 19q13 14 16 16q6 3 11.5 3.5t9.5 -0.5q9 -3 15 -9t8 -15v-1q1 -5 -1 -12q-1 -5 -5 -11q-7 -10 -17 -18q-21 -20 -47 -28q-22 -6 -55 -6h-5h-3q-11 1 -19 9q-4 4 -7 16q-3 -3 -8 -5q-3 -1 -5 0q-6 2 -9 5q-3 -14 -12 -20
q-10 -7 -21 -5.5t-18.5 10.5t-7.5 20v35q-1 9 2 17t11 13q1 1 2 1q7 4 15 4z" />
    <glyph glyph-name="uniF733" unicode="&#xe4d;&#xe4b;" horiz-adv-x="0" 
d="M-230 800q12 0 21 -8.5t9 -21.5h10q9 0 14.5 -6t5.5 -14t-5.5 -14t-14.5 -6h-10q0 -13 -9 -21.5t-21 -8.5t-21 8.5t-9 21.5h-10q-9 0 -14.5 6t-5.5 14t5.5 14t14.5 6h10q0 13 8.5 21.5t21.5 8.5zM-240 680q33 0 56.5 -23.5t23.5 -56.5t-23.5 -56.5t-56.5 -23.5
t-56.5 23.5t-23.5 56.5t23.5 56.5t56.5 23.5zM-240 620q-9 0 -14.5 -5.5t-5.5 -14.5t5.5 -14.5t14.5 -5.5t14.5 5.5t5.5 14.5t-5.5 14.5t-14.5 5.5z" />
    <glyph glyph-name="nine_in_heart" unicode="&#xe2f;&#xe23;&#xe2f;" 
d="M178 517q25 0 50 -7q31 -9 52 -27q21 18 52 27q53 15 98 -2q27 -10 50 -31q1 0 1 -1q31 -29 38 -64q4 -21 -4 -38q-5 -10 -16.5 -17t-22.5 -7q-32 -1 -57 17l-16 12q-3 -10 -3 -19v-1q2 -5 5 -11q9 -20 12 -25t4 -5q8 -3 13.5 -11t5.5 -17q0 -12 -9 -21t-21 -9
q-5 0 -10 2q-20 6 -34 30q-5 7 -16 31q-7 16 -11 22l-3 3h-4q-1 -3 -3 -8q17 -25 31 -67q4 -9 8.5 -24t8 -25t6.5 -16q2 -5 4 -9q14 -2 23.5 -13.5t9.5 -25.5q0 -17 -11.5 -28.5t-28.5 -11.5q-27 0 -48 20q-12 13 -22 35q-1 2 -25 72q-14 39 -28 56q-15 17 -37 17
q-10 0 -22 -18q-18 -26 -18 -62q0 -29 27 -38v2q-9 4 -15.5 15t-6.5 21q0 17 11.5 28.5t28.5 11.5q24 0 42 -18q15 -15 17 -34q10 -31 -6 -63q-16 -31 -40 -41q-5 -2 -11 -3q-4 -1 -8 -1h-6q-47 3 -80 38t-33 82q0 61 32 108q36 52 88 52q34 0 63 -17q8 12 20 19q11 6 23 6
q7 1 18 -1q2 0 5 -1q2 6 5 10q12 18 31 23q20 6 42 -4q8 -3 13 -6.5t8 -7.5t5 -5q-6 10 -13 17q-15 13 -30 19q-27 10 -61 0q-33 -9 -41 -29q-4 -7 -12 -12.5t-16 -5.5t-16 5t-11 13q-9 20 -42 29q-34 10 -61 0q-32 -12 -56 -52t-24 -80q0 -82 55 -163q25 -37 99 -87
q28 -19 56 -35q28 16 56 35q75 51 99 87q55 81 55 163q0 13 9 21.5t21 8.5t21 -8.5t9 -21.5q0 -101 -65 -197q-31 -46 -115 -103q-40 -27 -76 -46q-6 -4 -14 -4t-14 4l-10 5q-10 6 -29 17.5t-37 23.5q-84 57 -115 103q-65 96 -65 197q0 57 32 110q35 59 88 78q22 8 48 9z
" />
    <glyph glyph-name="uvSOV" unicode="&#xe2f;&#xe23;&#xe2d;&#xe07;&#xe2f;" 
d="M312 279l3 -1q3 -3 12 -1q8 2 12 -2q2 -3 3.5 -3t4.5 3q4 2 5.5 2t5.5 -4q2 -2 3 -2.5t3 -0.5h2q-1 -1 -4 -1t-6 3.5t-5 2.5t-4 -3t-4 -2t-5 2t-4 1q-2 -2 -8 -25q-3 -12 -1 -15q1 -1 4 -1t4 -1t0 -1q-2 1 -3 0q-4 -2 -7 2t-12 19q-11 18 -14 20q-2 0 -3 1.5t-3 1.5h1
h4.5h7.5h5l3 -3q2 -2 2.5 -2t0.5 -0.5t-1 -0.5t-2 1h-2q-2 2 -3 2q-1 -1 -0.5 -3t5.5 -10q6 -10 7 -9q0 1 2 11.5t2 11.5t-3.5 1.5t-5.5 3zM258 290l1 3q1 -1 1 -3q0 -4 3 -1q2 1 5 0.5t5 -2.5q2 -4 -1 -14q-2 -7 -2 -9t2 -4t6 -1.5t7 0.5h4v2q-1 3 -6 13q-2 4 -1.5 8.5
t3.5 6.5q3 1 6.5 0.5t4.5 -2.5t0 -5v-3l2 -1q3 -1 -1 -1q-1 -1 -3 -1q-3 0 -4 2q-3 4 1 5q1 1 0.5 1.5t-2 0.5t-2.5 -1q-2 -4 4 -11t6 -12q0 -4 -2.5 -6.5t-2.5 -4.5t0.5 -2.5t2.5 -0.5l2 -1h-3q-3 0 -5 4l-1 2h-10q-8 1 -10 1.5t-4 4.5q-3 3 0 15q3 11 1 11l-2 -1t-3 -1
q-4 2 -2 8zM286 297q17 3 20 -2q1 -2 -1 -1q-3 3 -14 0q-9 -3 -14 -1q-1 1 -3 2t-4 1l-1 1q1 1 7 0q4 -1 10 0zM243 25q-11 1 -25 6t-21 10q-8 6 -13.5 16t-7.5 22q0 11 2 22q3 11 13 21t23 14h14.5t15.5 -1q8 -2 13 -6.5t8 -12.5q6 -14 -1 -24q-5 -8 -6 -15q0 -4 2 -6
q4 -4 22 -4h7l-4 -1q-12 -5 -25 -6t-22 4q-6 3 -10 10q-2 4 -2 10t1 11q3 6 9 7t11 -3q1 -1 2 0q3 2 0 8q-4 15 -22 10q-11 -3 -17 -8q-8 -9 -8 -24q0 -30 28 -37q9 -2 24.5 -2t23.5 1q9 2 22 8q7 3 15.5 9t13.5 11q8 10 11.5 20t3.5 24q0 27 -23 50q-19 20 -49 24
q-16 2 -31 0q-41 -5 -52 -48q-2 -6 -2 -7q-1 -2 -7 5q-2 1 -2 2q-10 13 -2 34q7 17 31 40q18 16 18 26q0 7 -6 11l-4 3l-10 -1q-18 0 -26.5 5t-13.5 19q-1 5 -1 14t1 15q5 17 21 29q7 6 9 11q2 4 1 7q0 6 -7 17q-5 9 -4 14.5t9 11.5q9 5 11.5 12t1.5 16l-1 3q3 -5 2 -15
q-1 -9 -7.5 -15.5t-6.5 -11.5q0 -8 13 -20q9 -7 11.5 -11t2.5 -8.5t-3 -7.5t-11 -9q-15 -9 -19 -18q-2 -4 -2 -9q-1 -18 15 -22q3 -1 12 -1q16 0 21 -2q8 -3 13 -12t5 -19q0 -14 -12 -29h-4h5h16.5t18.5 -1q35 -7 60 -23q31 -21 38 -62q4 -19 -2.5 -39t-21.5 -39
q-5 -6 -12 -12t-13 -9q-9 -4 -22 -7q-26 -7 -27 -7h-16q-11 0 -17 2zM9 144q3 -3 14 -6t37 1q28 5 39 2q5 -1 8 -5.5t3 -9.5q0 -7 -5 -9q-4 -2 -8 0l-2 2l-1 -4q-1 -7 0 -12q3 -5 12 -9t17 -3q7 1 16.5 4.5t12.5 7.5q3 3 4 9t-1 11q-3 4 -8.5 8t-23.5 12q-28 12 -35 17.5
t-7 15.5q-1 14 7 23t19.5 13t23.5 1q5 -1 6 -1h2l-2 2q-3 4 -2 11l0.5 1.5t1.5 3t1.5 2.5l1 2t1.5 1l-2 -4q-6 -10 3 -16l8 -4q10 -4 13 -9t3 -17q0 -8 -1 -11t-5 -7q-9 -8 -19 -4q-3 1 -5 5q-3 6 1 13q4 5 3 7t-6 6h1q6 -3 7 -7q2 -2 1 -5t-0.5 -4t5 -1t7 -1.5t3.5 -1.5
q2 0 2.5 5.5t-0.5 9.5t-5 8t-8 6q-10 3 -22 3q-14 0 -24 -7q-9 -6 -5 -15q1 -5 11 -11q9 -6 35 -16q18 -6 23 -12q6 -7 7 -17q1 -26 -13 -36q-7 -5 -18 -8h-21.5t-19.5 1q-7 3 -8 0l1.5 -1.5t5.5 -3.5q7 -2 10 -7q1 -2 1 -6q2 -7 -0.5 -13.5t-7.5 -10.5q-6 -4 -14 -6
q-10 -2 -22 1q-13 4 -21 4t-16 -2l-1 1q1 0 5 1q12 3 31 -1q10 -2 14 -2q7 0 15.5 5.5t10.5 11.5q4 12 -10 17q-9 3 -12 5.5t-4 7.5v6q1 4 5 5l-1 4q-3 8 0 18q2 6 1 8t-3 2h-22.5t-25 1t-11 4.5t-9.5 5.5zM540 186l-5 -2q-10 -4 -18 8q-8 11 -20 12q-8 1 -17 -3
q-13 -6 -17 -15q-5 -8 -24.5 -53.5t-21.5 -51.5q-2 -9 0 -12q1 -2 6 -4t5.5 -3t0.5 -5.5t-1 -5.5v3q0 7 -6 10q-9 4 -19 25q-7 14 -24 62q-20 53 -23 55q-2 1 -5 1q-8 -1 -9 0t-2 5q-2 8 -8 9l-4 1h3q8 0 11 -7q3 -3 4 -3.5t5.5 0.5t7 0t5.5 -6q2 -4 3.5 -4.5t4.5 3.5t5.5 4
h7.5q10 -1 15 -6q7 -8 7 -15q0 -5 -5 -12q-6 -8 -8 -15q-2 -10 8 -16l1 -1q-1 -1 -7 4q-5 4 -5 11q0 10 7 18q9 12 -1 18q-5 3 -7 -1t-10 -5h-3h-1.5t-1 -0.5t0.5 -0.5l17 -43l16 -38q1 0 18 40q14 32 16.5 39.5t0.5 10.5q-1 1 -6 2q-8 0 -11 6q-1 3 -2 3h-4q-5 -2 -10.5 3
t-5.5 12l-1 4l2 -6q4 -12 9 -12h4.5h6t7 -2t6.5 -4q6 -2 30 1q27 2 36 0q8 -3 13 -10q4 -5 9 -8q5 -1 11 0h3z" />
    <glyph glyph-name=".notdef" 
d="M16 402v-381h242v381h-242zM274 0h-274v423h274v-423z" />
    <glyph glyph-name=".null" 
 />
    <glyph glyph-name="nonmarkingreturn" 
 />
    <glyph glyph-name="space" unicode=" " 
 />
    <glyph glyph-name="exclam" unicode="!" 
d="M279 681h1q17 0 28.5 -12t11.5 -28v-1v-420v-1q0 -16 -11.5 -28t-28.5 -12t-28.5 12t-11.5 28v1v420v1q0 16 11.5 27.5t27.5 12.5zM280 140q29 0 49.5 -20.5t20.5 -49.5t-20.5 -49.5t-49.5 -20.5t-49.5 20.5t-20.5 49.5t20.5 49.5t49.5 20.5z" />
    <glyph glyph-name="quotedbl" unicode="&#x22;" 
d="M219 681h1q17 0 28.5 -12t11.5 -28v-1v-140v-1q0 -16 -11.5 -28t-28.5 -12t-28.5 12t-11.5 28v1v140v1q0 16 11.5 27.5t27.5 12.5zM339 681h1q17 0 28.5 -12t11.5 -28v-1v-140v-1q0 -16 -11.5 -28t-28.5 -12t-28.5 12t-11.5 28v1v140v1q0 16 11.5 27.5t27.5 12.5z" />
    <glyph glyph-name="numbersign" unicode="#" 
d="M199 541h1q17 0 28.5 -12t11.5 -28v-1v-60h80v60v1q0 16 11.5 27.5t27.5 12.5h1q17 0 28.5 -12t11.5 -28v-1v-60h60h1q16 0 28 -11.5t12 -28.5t-12 -28.5t-28 -11.5h-1h-60v-80h60h1q16 0 28 -11.5t12 -28.5t-12 -28.5t-28 -11.5h-1h-60v-60v-1q0 -16 -11.5 -28
t-28.5 -12t-28.5 12t-11.5 28v1v60h-80v-60v-1q0 -16 -11.5 -28t-28.5 -12t-28.5 12t-11.5 28v1v60h-60h-1q-16 0 -28 11.5t-12 28.5t12 28.5t28 11.5h1h60v80h-60h-1q-16 0 -28 11.5t-12 28.5t12 28.5t28 11.5h1h60v60v1q0 16 11.5 27.5t27.5 12.5zM240 360v-80h80v80h-80z
" />
    <glyph glyph-name="dollar" unicode="$" 
d="M279 721h1q17 0 28.5 -12t11.5 -28v-1v-43q54 -7 93 -34q30 -20 48.5 -52.5t18.5 -70.5v-1q0 -16 -11.5 -28t-28.5 -12t-28.5 12t-11.5 28v1q0 36 -31 57q-35 23 -89 23t-89 -23q-31 -21 -31 -57q0 -9 10 -25.5t29 -33.5q39 -35 99 -65q73 -37 119 -79q63 -57 63 -117
q0 -38 -18.5 -70.5t-48.5 -52.5q-39 -27 -93 -34v-43v-1q0 -16 -11.5 -28t-28.5 -12t-28.5 12t-11.5 28v1v43q-54 7 -93 34q-30 20 -48.5 52.5t-18.5 70.5v1q0 16 11.5 28t28.5 12t28.5 -12t11.5 -28v-1q0 -36 31 -57q35 -23 89 -23t89 23q31 21 31 57q0 24 -37 58
q-37 35 -101 66q-70 35 -117 78q-65 59 -65 118q0 38 18.5 70.5t48.5 52.5q39 27 93 34v43v1q0 16 11.5 27.5t27.5 12.5z" />
    <glyph glyph-name="percent" unicode="%" 
d="M479 680h1q17 0 28.5 -11.5t11.5 -28.5q0 -12 -7 -22l-400 -600q-5 -8 -14.5 -13.5t-18.5 -5.5q-17 0 -28.5 12t-11.5 28q0 13 7 23l400 600q11 18 32 18zM160 680q49 0 84.5 -35.5t35.5 -84.5t-35.5 -84.5t-84.5 -35.5t-84.5 35.5t-35.5 84.5t35.5 84.5t84.5 35.5z
M160 600q-17 0 -28.5 -11.5t-11.5 -28.5t11.5 -28.5t28.5 -11.5t28.5 11.5t11.5 28.5t-11.5 28.5t-28.5 11.5zM400 240q49 0 84.5 -35.5t35.5 -84.5t-35.5 -84.5t-84.5 -35.5t-84.5 35.5t-35.5 84.5t35.5 84.5t84.5 35.5zM400 160q-17 0 -28.5 -11.5t-11.5 -28.5t11.5 -28.5
t28.5 -11.5t28.5 11.5t11.5 28.5t-11.5 28.5t-28.5 11.5z" />
    <glyph glyph-name="ampersand" unicode="&#x26;" 
d="M260 680q75 0 120 -50q40 -45 40 -110q0 -64 -60 -119q-27 -25 -78 -58l116 -140q2 10 2 17v40v1q0 16 11.5 28t28.5 12t28.5 -12t11.5 -28v-1v-40q0 -43 -24 -88l55 -67q9 -11 9 -25q0 -17 -11.5 -28.5t-28.5 -11.5q-19 0 -31 15l-44 53q-71 -68 -165 -68q-86 0 -143 54
t-57 126q0 70 58 129q25 25 65 52q-63 71 -63 159q0 65 40 110q45 50 120 50zM260 600q-39 0 -60 -24q-20 -22 -20 -56q0 -28 18 -64t30 -48q2 -1 3 -3q53 35 75 55q34 31 34 60q0 34 -20 56q-21 24 -60 24zM214 300q-39 -27 -59 -47q-35 -36 -35 -73q0 -40 31.5 -70
t88.5 -30q65 0 114 50z" />
    <glyph glyph-name="quotesingle" unicode="'" 
d="M279 681h1q17 0 28.5 -12t11.5 -28v-1v-140v-1q0 -16 -11.5 -28t-28.5 -12t-28.5 12t-11.5 28v1v140v1q0 16 11.5 27.5t27.5 12.5z" />
    <glyph glyph-name="parenleft" unicode="(" 
d="M380 700h1q16 0 28 -11.5t12 -28.5t-12 -28.5t-28 -11.5h-1q-59 0 -99.5 -40.5t-40.5 -99.5v-460q0 -59 40.5 -99.5t99.5 -40.5h1q16 0 28 -11.5t12 -28.5t-12 -28.5t-28 -11.5h-1q-91 0 -155.5 64.5t-64.5 155.5v460q0 91 64.5 155.5t155.5 64.5z" />
    <glyph glyph-name="parenright" unicode=")" 
d="M180 700q91 0 155.5 -64.5t64.5 -155.5v-460q0 -91 -64.5 -155.5t-155.5 -64.5h-1q-16 0 -28 11.5t-12 28.5t12 28.5t28 11.5h1q59 0 99.5 40.5t40.5 99.5v460q0 59 -40.5 99.5t-99.5 40.5h-1q-16 0 -28 11.5t-12 28.5t12 28.5t28 11.5h1z" />
    <glyph glyph-name="asterisk" unicode="*" 
d="M361 439q16 0 27.5 -12t11.5 -28q0 -11 -5 -20l-46 -79h91h1q16 0 28 -11.5t12 -28.5t-12 -28.5t-28 -11.5h-1h-91l46 -79q5 -9 5 -20q0 -16 -11.5 -28t-28.5 -12q-10 0 -20 6t-15 14l-45 79l-45 -79q-5 -8 -15 -14t-20 -6q-17 0 -28.5 12t-11.5 28q0 11 5 20l46 79h-91
h-1q-16 0 -28 11.5t-12 28.5t12 28.5t28 11.5h1h91l-46 79q-5 9 -5 20q0 16 11 27.5t27 12.5h2q9 0 19.5 -6t15.5 -14l45 -79l45 79q5 8 15.5 14t19.5 6h1z" />
    <glyph glyph-name="plus" unicode="+" 
d="M279 501h1q17 0 28.5 -12t11.5 -28v-1v-160h160h1q16 0 28 -11.5t12 -28.5t-12 -28.5t-28 -11.5h-1h-160v-160v-1q0 -16 -11.5 -28t-28.5 -12t-28.5 12t-11.5 28v1v160h-160h-1q-16 0 -28 11.5t-12 28.5t12 28.5t28 11.5h1h160v160v1q0 16 11.5 27.5t27.5 12.5z" />
    <glyph glyph-name="comma" unicode="," 
d="M280 140h3q23 -1 41 -16t24 -37q9 -30 0 -71q-20 -92 -88 -131q-10 -6 -21 -6q-16 0 -28 12t-12 28q0 10 6 20.5t15 15.5q21 12 39 48q-21 7 -35 25.5t-14 41.5q0 29 20.5 49.5t49.5 20.5z" />
    <glyph glyph-name="hyphen" unicode="-" 
d="M120 300h320h1q16 0 28 -11.5t12 -28.5t-12 -28.5t-28 -11.5h-1h-320h-1q-16 0 -28 11.5t-12 28.5t12 28.5t28 11.5h1z" />
    <glyph glyph-name="period" unicode="." 
d="M280 160q33 0 56.5 -23.5t23.5 -56.5t-23.5 -56.5t-56.5 -23.5t-56.5 23.5t-23.5 56.5t23.5 56.5t56.5 23.5z" />
    <glyph glyph-name="slash" unicode="/" 
d="M441 640q16 0 27.5 -11.5t11.5 -28.5q0 -8 -4 -17l-320 -700q-4 -10 -14.5 -17t-21.5 -7q-17 0 -28.5 12t-11.5 28q0 9 4 18l320 700q4 10 14.5 17t21.5 7z" />
    <glyph glyph-name="zero" unicode="0" 
d="M280 640q47 0 89 -21t71 -61q60 -83 60 -238t-60 -238q-29 -40 -71 -61t-89 -21t-89 21t-71 61q-60 83 -60 238t60 238q29 40 71 61t89 21zM280 560q-60 0 -95 -48q-45 -63 -45 -192q0 -98 27 -159l193 368q-31 31 -80 31zM405 444l-183 -350q24 -14 58 -14q60 0 95 48
q45 63 45 192q0 71 -15 124z" />
    <glyph glyph-name="one" unicode="1" 
d="M279 641h1q8 0 15 -3q2 -1 3 -2h1q9 -5 15 -15t6 -21v-5v-515h120h1q16 0 28 -11.5t12 -28.5t-12 -28.5t-28 -11.5h-1h-320h-1q-16 0 -28 11.5t-12 28.5t12 28.5t28 11.5h1h120v423l-32 -31q-12 -13 -29 -13q-16 0 -28 12t-12 28q0 17 13 29l96 97q12 15 31 16z" />
    <glyph glyph-name="two" unicode="2" 
d="M280 640q90 0 145 -55q48 -48 55 -121q6 -74 -66 -149q-39 -40 -112 -88q-52 -35 -98 -97q-17 -23 -30 -50h266h1q16 0 28 -11.5t12 -28.5t-12 -28.5t-28 -11.5h-1h-320q-17 0 -28.5 11.5t-11.5 28.5q0 57 60 137q54 74 118 116q66 44 99 78q46 48 43 85q-4 45 -31 72
q-32 32 -89 32q-55 0 -92 -34q-9 -9 -16 -20t-9.5 -17.5t-2.5 -8.5v-1q0 -16 -11.5 -28t-28.5 -12t-28.5 12t-11.5 28v1q0 55 53 104q60 56 147 56z" />
    <glyph glyph-name="three" unicode="3" 
d="M120 640h320q17 0 28.5 -11.5t11.5 -28.5q0 -58 -58 -146q-25 -37 -52 -67q34 -15 58 -44q52 -61 52 -143q0 -80 -51 -137q-57 -63 -149 -63q-87 0 -147 56q-53 49 -53 104v1q0 16 11.5 28t28.5 12t28.5 -12t11.5 -28v-1q0 -2 2.5 -8.5t9.5 -17.5t16 -20q37 -34 92 -34
q57 0 90 37q30 34 30 83q0 23 -9 48.5t-24 43.5q-32 37 -76 29q-6 -1 -12 -1q-11 0 -21 6h-1q-7 5 -12.5 15t-5.5 19q0 10 6.5 20.5t15.5 14.5q48 34 94 103q19 29 33 62h-268h-1q-16 0 -28 11.5t-12 28.5t12 28.5t28 11.5h1z" />
    <glyph glyph-name="four" unicode="4" 
d="M399 641h1q3 0 6 -1q2 0 3 -1h1q1 0 2.5 -0.5t2.5 -0.5l4 -2q9 -5 15 -15t6 -21v-5v-375h20h1q16 0 28 -11.5t12 -28.5t-12 -28.5t-28 -11.5h-1h-20v-100v-1q0 -16 -11.5 -28t-28.5 -12t-28.5 12t-11.5 28v1v100h-275h-5q-21 0 -33 17q-1 0 -1 1l-1 1q-6 10 -6 21
q0 17 13 29l314 412q4 8 14 13.5t19 6.5zM360 482l-199 -262h199v262z" />
    <glyph glyph-name="five" unicode="5" 
d="M120 640h320h1q16 0 28 -11.5t12 -28.5t-12 -28.5t-28 -11.5h-1h-280v-154q55 34 120 34q90 0 147 -65q49 -56 53 -133q5 -84 -46 -157q-27 -38 -66.5 -61.5t-87.5 -23.5q-68 0 -120.5 28.5t-75.5 73.5q-5 9 -5 19q0 17 12 28.5t28 11.5q11 0 21.5 -6.5t15.5 -16.5
q9 -20 44 -39t80 -19q53 0 88 51q16 23 24.5 52.5t7.5 54.5q-3 49 -34 84q-33 38 -86 38q-31 0 -55 -9.5t-36.5 -20t-36.5 -35.5q-12 -16 -32 -16q-15 0 -26.5 11t-13.5 25v3v2v280q0 17 11.5 28.5t28.5 11.5z" />
    <glyph glyph-name="six" unicode="6" 
d="M400 640h1q16 0 28 -11.5t12 -28.5t-12 -28.5t-28 -11.5h-1q-131 0 -208 -104q-16 -22 -26 -90q53 34 114 34q88 0 144 -61.5t56 -138.5t-51 -135q-57 -65 -149 -65q-52 0 -93 25t-66 64q-40 63 -41 146v4v1q-2 48 2 99q4 53 13.5 93t32.5 72q46 63 116 99.5t156 36.5z
M280 320q-35 0 -71.5 -23t-48.5 -62q2 -61 29 -104q32 -51 91 -51q56 0 89 38q31 35 31 82q0 46 -32 83t-88 37z" />
    <glyph glyph-name="seven" unicode="7" 
d="M120 640h320q17 0 28.5 -11.5t11.5 -28.5q0 -6 -2 -11l-160 -560q-3 -12 -14.5 -20.5t-23.5 -8.5q-17 0 -28.5 11.5t-11.5 28.5q0 6 2 11l145 509h-267h-1q-16 0 -28 11.5t-12 28.5t12 28.5t28 11.5h1z" />
    <glyph glyph-name="eight" unicode="8" 
d="M280 640q87 0 136 -49q44 -44 44 -111q0 -66 -62 -115q-14 -11 -33 -22q32 -19 55 -38q60 -53 60 -125q0 -76 -46 -124q-53 -56 -154 -56q-86 0 -143 54t-57 126t60 125q23 19 55 38q-19 11 -33 22q-62 49 -62 115q0 67 44 111q49 49 136 49zM280 560q-54 0 -79 -25
q-21 -21 -21 -55q0 -27 32 -52q20 -16 68 -41q48 25 68 41q32 25 32 52q0 34 -21 55q-25 25 -79 25zM280 298q-62 -32 -87 -53q-33 -30 -33 -65q0 -40 31.5 -70t88.5 -30q66 0 96 31q24 25 24 69q0 35 -33 65q-25 21 -87 53z" />
    <glyph glyph-name="nine" unicode="9" 
d="M279 640q53 0 94 -25t65 -64q40 -63 41 -146q1 -2 1 -4v-1v-1q1 -47 -3 -98q-4 -53 -13 -93t-32 -72q-47 -63 -117 -99.5t-156 -36.5q-17 0 -28.5 11.5t-11.5 28.5t11.5 28.5t28.5 11.5q132 0 208 104q17 22 27 90q-54 -34 -115 -34q-88 0 -144 61.5t-56 138.5t51 135
q58 65 149 65zM279 560q-55 0 -89 -38q-31 -35 -31 -82q0 -46 32.5 -83t87.5 -37q35 0 72 23t48 62q-1 61 -28 104q-32 51 -92 51z" />
    <glyph glyph-name="colon" unicode=":" 
d="M280 500q33 0 56.5 -23.5t23.5 -56.5t-23.5 -56.5t-56.5 -23.5t-56.5 23.5t-23.5 56.5t23.5 56.5t56.5 23.5zM280 160q33 0 56.5 -23.5t23.5 -56.5t-23.5 -56.5t-56.5 -23.5t-56.5 23.5t-23.5 56.5t23.5 56.5t56.5 23.5z" />
    <glyph glyph-name="semicolon" unicode=";" 
d="M280 500q33 0 56.5 -23.5t23.5 -56.5t-23.5 -56.5t-56.5 -23.5t-56.5 23.5t-23.5 56.5t23.5 56.5t56.5 23.5zM280 140h3q23 -1 41 -16t24 -37q9 -30 0 -71q-20 -92 -88 -131q-10 -6 -21 -6q-16 0 -28 12t-12 28q0 10 6 20.5t15 15.5q21 12 39 48q-21 7 -35 25.5t-14 41.5
q0 29 20.5 49.5t49.5 20.5z" />
    <glyph glyph-name="less" unicode="&#x3c;" 
d="M439 500h1q17 0 28.5 -11.5t11.5 -28.5q0 -9 -5 -19t-13 -14l-269 -177l269 -177q8 -4 13.5 -14t5.5 -20q0 -16 -12 -28t-28 -12q-13 0 -23 8l-313 205q-11 4 -18.5 15t-7.5 22q0 8 3 16q1 1 1 2q6 13 20 20l315 206q10 7 21 7z" />
    <glyph glyph-name="equal" unicode="=" 
d="M120 340h320h1q16 0 28 -11.5t12 -28.5t-12 -28.5t-28 -11.5h-1h-320h-1q-16 0 -28 11.5t-12 28.5t12 28.5t28 11.5h1zM120 240h320h1q16 0 28 -11.5t12 -28.5t-12 -28.5t-28 -11.5h-1h-320h-1q-16 0 -28 11.5t-12 28.5t12 28.5t28 11.5h1z" />
    <glyph glyph-name="greater" unicode="&#x3e;" 
d="M119 500h1q12 0 22 -7l315 -206q14 -7 20 -21l1 -1q3 -7 3 -16q0 -11 -7.5 -22t-18.5 -15l-313 -205q-10 -8 -23 -8q-16 0 -28 12t-12 28q0 10 5.5 20t13.5 14l269 177l-269 177q-8 4 -13 14t-5 19q0 17 11.5 28.5t27.5 11.5z" />
    <glyph glyph-name="question" unicode="?" 
d="M275 680h6q94 -2 147 -55q52 -53 52 -145q0 -28 -8 -52.5t-24 -46.5t-28.5 -35.5t-32.5 -32.5q-39 -36 -50 -51q-17 -22 -17 -42v-20v-1q0 -16 -11.5 -28t-28.5 -12t-28.5 12t-11.5 28v1v20q0 47 33 90q16 20 60 62q35 33 51 56t16 52q0 59 -29 89q-30 30 -92 31
q-57 1 -88 -33q-30 -33 -31 -88q0 -10 7 -17t18 -7t18 7t7 18v1q0 16 11.5 28t28.5 12t28.5 -12t11.5 -28v-1q0 -43 -31 -74t-74 -31t-74 31t-31 74v0v1q2 85 52 140q54 59 143 59zM280 140q29 0 49.5 -20.5t20.5 -49.5t-20.5 -49.5t-49.5 -20.5t-49.5 20.5t-20.5 49.5
t20.5 49.5t49.5 20.5z" />
    <glyph glyph-name="at" unicode="@" 
d="M280 500q100 0 170 -73.5t70 -176.5q0 -50 -19 -97q-1 -4 -4 -7q-1 -5 -4 -8q-23 -34 -59 -43q-31 -8 -64 5q-27 11 -44 28q-28 -18 -56 -18q-50 0 -86 28q-44 34 -44 92q0 56 44.5 103t95.5 47q19 0 36 -8q10 8 23 9h1q17 0 28.5 -12t11.5 -28v-1v-32q1 -6 0 -12v-91v-9
v-6q0 3 3 0q11 -13 17 -15q9 -4 15 -2q6 1 12 9v1q13 32 13 67q0 71 -47 120.5t-113 49.5t-113 -49.5t-47 -120.5t47 -120.5t113 -49.5q32 0 62 13q7 4 16 4q16 0 28 -12t12 -29q0 -10 -7 -21t-17 -15q-45 -20 -94 -20q-100 0 -170 73.5t-70 176.5t70 176.5t170 73.5z
M278 300q-16 -1 -36 -22q-22 -24 -22 -48q0 -19 13 -29q14 -11 37 -11q18 0 30 18v80q-13 12 -22 12z" />
    <glyph glyph-name="A" unicode="A" 
d="M281 641q14 -1 25 -10.5t14 -22.5l198 -555q2 -6 2 -13q0 -17 -11.5 -28.5t-28.5 -11.5q-12 0 -23 8t-15 19l-40 113h-244l-40 -113q-4 -12 -15 -20t-23 -8q-17 0 -28.5 12t-11.5 28q0 8 2 14l199 555q2 14 13.5 23t24.5 10h2zM280 481l-93 -261h186z" />
    <glyph glyph-name="B" unicode="B" 
d="M119 641h1q3 0 6 -1h154q66 0 117 -40q28 -21 45.5 -55t17.5 -75q0 -79 -59 -128q36 -25 57.5 -65t21.5 -87q0 -82 -59 -136t-141 -54h-154q-3 -1 -6 -1q-17 0 -29 13q-12 12 -12 28q0 3 1 6v548q-1 3 -1 6q0 17 13 29q12 11 27 12zM160 560v-180h120q38 0 68 23
q32 25 32 67t-32 67q-30 23 -68 23h-120zM160 300v-220h120q55 0 87.5 29.5t32.5 80.5t-32.5 80.5t-87.5 29.5h-120z" />
    <glyph glyph-name="C" unicode="C" 
d="M300 640q127 0 190 -74q10 -11 10 -26q0 -17 -11.5 -28.5t-28.5 -11.5q-18 0 -30 14q-18 20 -56 33t-74 13q-74 0 -111 -43q-49 -58 -49 -197t49 -197q37 -43 111 -43q36 0 74 13t56 33q12 14 30 14q17 0 28.5 -11.5t11.5 -28.5q0 -15 -10 -26q-63 -74 -190 -74
q-111 0 -172 72q-68 80 -68 248t68 248q61 72 172 72z" />
    <glyph glyph-name="D" unicode="D" 
d="M119 641h1q3 0 6 -1h114q109 0 184.5 -93.5t75.5 -226.5t-75.5 -226.5t-184.5 -93.5h-114q-3 -1 -6 -1q-17 0 -29 13q-12 12 -12 28q0 3 1 6v548q-1 3 -1 6q0 17 13 29q12 11 27 12zM160 560v-480h80q73 0 126.5 68t53.5 172t-53.5 172t-126.5 68h-80z" />
    <glyph glyph-name="E" unicode="E" 
d="M119 641h1q3 0 6 -1h295q17 0 28.5 -11.5t11.5 -28.5t-11.5 -28.5t-28.5 -11.5h-261v-200h160h1q16 0 28 -11.5t12 -28.5t-12 -28.5t-28 -11.5h-1h-160v-200h261q17 0 28.5 -11.5t11.5 -28.5t-11.5 -28.5t-28.5 -11.5h-295q-3 -1 -6 -1q-16 0 -28 12q-1 0 -1 1
q-12 12 -12 28q0 3 1 6v548q-1 3 -1 6q0 17 13 29q12 11 27 12z" />
    <glyph glyph-name="F" unicode="F" 
d="M139 641h1q3 0 6 -1h295q17 0 28.5 -11.5t11.5 -28.5t-11.5 -28.5t-28.5 -11.5h-261v-200h160h1q16 0 28 -11.5t12 -28.5t-12 -28.5t-28 -11.5h-1h-160v-240v-1q0 -16 -11.5 -28t-28.5 -12t-28.5 12t-11.5 28v1v554q-1 3 -1 6q0 17 13 29q12 11 27 12z" />
    <glyph glyph-name="G" unicode="G" 
d="M300 640q127 0 190 -74q10 -11 10 -26q0 -17 -11.5 -28.5t-28.5 -11.5q-18 0 -30 14q-18 20 -56 33t-74 13q-74 0 -111 -43q-49 -58 -49 -197t49 -197q37 -43 111 -43q32 0 66 10t54 27v163h-100h-1q-16 0 -28 11.5t-12 28.5t12 28.5t28 11.5h1h134q2 0 5 1h1
q17 0 29 -13q12 -12 12 -28q0 -3 -1 -6v-214v-1v-3q-2 -16 -14 -27q-63 -69 -186 -69q-111 0 -172 72q-68 80 -68 248t68 248q61 72 172 72z" />
    <glyph glyph-name="H" unicode="H" 
d="M119 641q17 0 29 -12t12 -29v-240h240v240q0 17 11.5 28.5t27.5 12.5q17 0 29 -12t12 -29v-560q0 -17 -11.5 -29t-28.5 -12t-28.5 12t-11.5 29v240h-240v-240q0 -17 -11.5 -29t-28.5 -12t-28.5 12t-11.5 29v560q0 17 11.5 28.5t27.5 12.5z" />
    <glyph glyph-name="I" unicode="I" 
d="M120 640h320h1q16 0 28 -11.5t12 -28.5t-12 -28.5t-28 -11.5h-1h-120v-480h120h1q16 0 28 -11.5t12 -28.5t-12 -28.5t-28 -11.5h-1h-320h-1q-16 0 -28 11.5t-12 28.5t12 28.5t28 11.5h1h120v480h-120h-1q-16 0 -28 11.5t-12 28.5t12 28.5t28 11.5h1z" />
    <glyph glyph-name="J" unicode="J" 
d="M439 641h1q16 0 28 -12q1 0 1 -1q12 -12 12 -28q0 -3 -1 -6v-394v-5v-4q-4 -80 -62 -135.5t-138 -55.5q-82 0 -141 59t-59 141v1q0 16 11.5 27.5t27.5 12.5h1q17 0 28.5 -12t11.5 -28v-1q0 -50 35 -85t85 -35t85 35t35 85v360h-120h-1q-16 0 -28 11.5t-12 28.5t12 28.5
t28 11.5h1h154q2 0 5 1z" />
    <glyph glyph-name="K" unicode="K" 
d="M119 641h1q17 0 28.5 -12t11.5 -28v-1v-254q2 16 15 26l236 255q12 13 29 13h2q16 0 27 -12t11 -28t-11 -27l-216 -235l218 -273q9 -11 9 -25q0 -17 -11.5 -28.5t-28.5 -11.5q-19 0 -31 15l-240 300q-8 9 -9 20v-295v-1q0 -16 -11.5 -28t-28.5 -12t-28.5 12t-11.5 28v1
v560v1q0 16 11.5 27.5t27.5 12.5z" />
    <glyph glyph-name="L" unicode="L" 
d="M119 641h1q17 0 28.5 -12t11.5 -28v-1v-520h281q17 0 28.5 -11.5t11.5 -28.5t-11.5 -28.5t-28.5 -11.5h-315q-3 -1 -6 -1q-16 0 -28 12q-1 0 -1 1q-12 12 -12 28q0 3 1 6v554v1q0 16 11.5 27.5t27.5 12.5z" />
    <glyph glyph-name="M" unicode="M" 
d="M101 641q11 -1 22 -8.5t15 -18.5l142 -285l142 285q4 11 14.5 18.5t21.5 8.5h2q3 0 6 -1q2 0 4 -1q12 -3 21 -14.5t9 -23.5v-4l20 -556v-2q0 -16 -11.5 -28t-28.5 -12q-16 0 -28 11.5t-12 28.5l-14 403l-107 -214q-4 -11 -14.5 -19.5t-22.5 -9.5h-1h-1.5h-0.5
q-12 1 -23 9t-15 20l-107 214l-14 -403q0 -17 -12 -28.5t-28 -11.5q-17 0 -28.5 12t-11.5 28v2l20 557v3q0 12 8.5 23.5t20.5 14.5v0q2 1 4 1q3 1 7 1h1z" />
    <glyph glyph-name="N" unicode="N" 
d="M119 641h1q11 0 21.5 -7.5t15.5 -17.5l243 -425v409v1q0 16 11.5 27.5t27.5 12.5h1q17 0 28.5 -12t11.5 -28v-1v-554q1 -4 1 -7q0 -16 -12 -28t-28 -12q-13 0 -23 7t-15 18l-243 425v-409v-1q0 -16 -11.5 -28t-28.5 -12t-28.5 12t-11.5 28v1v556v4q0 11 7 22t17 15v0l4 2
h3q2 1 3 1q3 1 5 1z" />
    <glyph glyph-name="O" unicode="O" 
d="M280 640q47 0 89 -21t71 -61q60 -83 60 -238t-60 -238q-29 -40 -71 -61t-89 -21t-89 21t-71 61q-60 83 -60 238t60 238q29 40 71 61t89 21zM280 560q-60 0 -95 -48q-45 -63 -45 -192t45 -192q35 -48 95 -48t95 48q45 63 45 192t-45 192q-35 48 -95 48z" />
    <glyph glyph-name="P" unicode="P" 
d="M119 641h1q3 0 6 -1h154q92 0 146 -54t54 -146t-54 -146t-146 -54h-120v-200v-1q0 -16 -11.5 -28t-28.5 -12t-28.5 12t-11.5 28v1v554q-1 3 -1 6q0 17 13 29q12 11 27 12zM160 560v-240h120q58 0 89 31t31 89t-31 89t-89 31h-120z" />
    <glyph glyph-name="Q" unicode="Q" 
d="M280 640q47 0 89 -21t71 -61q60 -83 60 -238t-60 -238q-23 -32 -56 -52q12 -15 31 -51q19 -35 29 -45q13 -14 36 -14h1q16 0 28 -11.5t12 -28.5t-12 -28.5t-28 -11.5h-1q-56 0 -94 38q-17 18 -41 63q-18 34 -28 44q-14 15 -37 15q-47 0 -89 21t-71 61q-60 83 -60 238
t60 238q29 40 71 61t89 21zM280 560q-60 0 -95 -48q-45 -63 -45 -192t45 -192q35 -48 95 -48t95 48q45 63 45 192t-45 192q-35 48 -95 48z" />
    <glyph glyph-name="R" unicode="R" 
d="M119 641h1q3 0 6 -1h154q92 0 146 -54t54 -146t-54 -146q-31 -31 -78 -45l125 -187q7 -10 7 -23q0 -16 -11.5 -28t-28.5 -12q-9 0 -18.5 5.5t-14.5 13.5l-148 222h-99v-200v-1q0 -16 -11.5 -28t-28.5 -12t-28.5 12t-11.5 28v1v554q-1 3 -1 6q0 17 13 29q12 11 27 12z
M160 560v-240h114h5.5h5.5q55 1 84 31q31 31 31 89t-31 89t-89 31h-120z" />
    <glyph glyph-name="S" unicode="S" 
d="M260 640q89 0 178 -44q9 -5 16 -15.5t7 -20.5q0 -17 -12 -28.5t-28 -11.5q-10 0 -19 4q-71 36 -142 36q-48 0 -75 -21q-25 -20 -25 -59q0 -25 29 -48q34 -29 105 -54q88 -33 137 -93t49 -125t-56 -112.5t-144 -47.5t-144 48.5t-56 111.5v1q0 16 11.5 28t28.5 12t28.5 -12
t11.5 -28v-1q0 -23 31.5 -51.5t88.5 -28.5q61 0 90.5 24.5t29.5 55.5q0 34 -33.5 76t-100.5 66q-84 31 -129 68q-57 48 -57 110q0 77 55 121q48 39 125 39z" />
    <glyph glyph-name="T" unicode="T" 
d="M100 640h360h1q16 0 28 -11.5t12 -28.5t-12 -28.5t-28 -11.5h-1h-140v-520v-1q0 -16 -11.5 -28t-28.5 -12t-28.5 12t-11.5 28v1v520h-140h-1q-16 0 -28 11.5t-12 28.5t12 28.5t28 11.5h1z" />
    <glyph glyph-name="U" unicode="U" 
d="M99 641h1q17 0 28.5 -12t11.5 -28v-1v-420q0 -33 36 -66.5t104 -33.5t104 33.5t36 66.5v420v1q0 16 11.5 27.5t27.5 12.5h1q17 0 28.5 -12t11.5 -28v-1v-420q0 -70 -61 -125t-159 -55t-159 55t-61 125v420v1q0 16 11.5 27.5t27.5 12.5z" />
    <glyph glyph-name="V" unicode="V" 
d="M481 641q17 -1 28 -12.5t11 -27.5q0 -8 -2 -14l-199 -558q-1 -3 -3 -6q0 -1 -1 -2q-5 -9 -15 -15.5t-20 -6.5q-14 0 -25.5 10t-14.5 24l-198 554q-2 6 -2 14q0 16 11.5 28t28.5 12h1q12 -1 22.5 -9t14.5 -18l162 -455l162 455q4 11 15 19t23 8h1z" />
    <glyph glyph-name="W" unicode="W" 
d="M481 641q16 -1 27.5 -12.5t11.5 -27.5v-7l-80 -560h-1q-2 -15 -13.5 -25t-25.5 -10t-25.5 10t-14.5 24l-80 281l-80 -281q-3 -14 -14.5 -24t-25.5 -10q-13 0 -24.5 9.5t-14.5 22.5q0 2 -1 3v1l-80 559v7q0 16 11.5 28t28.5 12h2q14 -1 25 -11t13 -24l53 -375l67 236
q3 13 14 23t24 10l1 1v0h1.5t1.5 -1h2h1q12 -1 22 -11t13 -22l67 -236l53 375q2 14 14 24.5t26 10.5h1z" />
    <glyph glyph-name="X" unicode="X" 
d="M100 640q9 0 19 -5.5t15 -12.5l146 -228l146 228q11 18 33 18h1q17 0 28.5 -11.5t11.5 -28.5q0 -12 -6 -22l-166 -258l166 -258q6 -10 6 -22q0 -17 -11.5 -28.5t-28.5 -11.5q-9 0 -19 5.5t-15 12.5l-146 228l-146 -228q-5 -7 -15 -12.5t-19 -5.5q-17 0 -28.5 11.5
t-11.5 28.5q0 12 6 22l166 258l-166 258q-6 10 -6 22q0 17 11.5 28.5t28.5 11.5z" />
    <glyph glyph-name="Y" unicode="Y" 
d="M481 640q16 0 27.5 -11.5t11.5 -27.5q0 -12 -6 -21l-194 -331v-209v-1q0 -16 -11.5 -28t-28.5 -12t-28.5 12t-11.5 28v1v209l-194 331q-6 9 -6 20q0 16 11 28t27 12h2q9 0 19.5 -5.5t14.5 -14.5l166 -281l166 281q4 9 14.5 15t19.5 6z" />
    <glyph glyph-name="Z" unicode="Z" 
d="M459 640h1q21 0 33 -17q1 -1 2 -3q6 -9 6 -20q0 -15 -10 -26l-318 -494h287h1q16 0 28 -11.5t12 -28.5t-12 -28.5t-28 -11.5h-1h-360h-1h-1q-16 1 -27.5 12.5t-11.5 27.5q0 15 10 26l318 494h-287h-1q-16 0 -28 11.5t-12 28.5t12 28.5t28 11.5h1h354h5z" />
    <glyph glyph-name="bracketleft" unicode="[" 
d="M199 701h1q3 0 6 -1h179h1q16 0 28 -11.5t12 -28.5t-12 -28.5t-28 -11.5h-1h-145v-740h145h1q16 0 28 -11.5t12 -28.5t-12 -28.5t-28 -11.5h-1h-179q-3 -1 -6 -1q-16 0 -28 12q-1 0 -1 1q-12 12 -12 28q0 3 1 6v808q-1 3 -1 6q0 17 13 29q12 11 27 12z" />
    <glyph glyph-name="backslash" unicode="\" 
d="M118 640q1 1 2 1q11 0 21.5 -7t14.5 -17l320 -700q4 -9 4 -18q0 -16 -11.5 -28t-28.5 -12q-11 0 -21.5 7t-14.5 17l-320 700q-4 9 -4 18q0 15 11 27t27 12z" />
    <glyph glyph-name="bracketright" unicode="]" 
d="M364 701h1q16 0 28 -12q1 0 1 -1q12 -12 12 -28q0 -3 -1 -6v-808q1 -3 1 -6q0 -16 -12 -28q0 -1 -1 -1q-12 -12 -28 -12q-3 0 -6 1h-179h-1q-16 0 -28 11.5t-12 28.5t12 28.5t28 11.5h1h145v740h-145h-1q-16 0 -28 11.5t-12 28.5t12 28.5t28 11.5h1h179q2 0 5 1z" />
    <glyph glyph-name="asciicircum" unicode="^" 
d="M280.5 700h1.5q10 0 20 -6.5t14 -15.5l156 -214q8 -11 8 -25q0 -16 -11.5 -28t-28.5 -12q-20 0 -32 17l-128 176l-128 -176q-12 -17 -32 -17q-17 0 -28.5 12t-11.5 28q0 14 8 25l156 215q4 8 14 14.5t20 6.5h0.5h1h1z" />
    <glyph glyph-name="underscore" unicode="_" 
d="M80 -120h400h1q16 0 28 -11.5t12 -28.5t-12 -28.5t-28 -11.5h-1h-400h-1q-16 0 -28 11.5t-12 28.5t12 28.5t28 11.5h1z" />
    <glyph glyph-name="grave" unicode="`" 
d="M218 680h2q21 0 33 -17l100 -140q7 -10 7 -23q0 -17 -11.5 -28.5t-28.5 -11.5q-21 0 -33 17l-100 140q-7 10 -7 23q0 16 11 28t27 12z" />
    <glyph glyph-name="a" unicode="a" 
d="M140 500h140q80 0 137 -43q63 -47 63 -117v-84q1 -3 1 -6t-1 -6v-98v-5.5v-5.5v-95v-1q0 -16 -11.5 -28t-28.5 -12t-28.5 12t-11.5 28v1v15q-82 -55 -175 -55h-3q-59 1 -100.5 43.5t-41.5 101.5q0 60 42.5 102.5t102.5 42.5h175v50q0 30 -31 53q-36 27 -89 27h-140h-1
q-16 0 -28 11.5t-12 28.5t12 28.5t28 11.5h1zM225 210q-27 0 -46 -19t-19 -46t19 -46t46 -19q93 0 175 77v53h-175z" />
    <glyph glyph-name="b" unicode="b" 
d="M119 701q17 0 29 -12t12 -29v-215q11 8 22 15q68 41 119 40q42 -1 77 -22t58 -56q44 -65 44 -162q0 -109 -58 -184.5t-142 -75.5h-154q-20 -3 -34 11q-1 0 -1 1q-14 14 -11 34v614q0 17 11.5 28.5t27.5 12.5zM297 420q-27 0 -73 -28q-33 -21 -64 -49v-263h120q44 0 82 50
t38 130q0 73 -30 118q-27 41 -71 42h-2z" />
    <glyph glyph-name="c" unicode="c" 
d="M300 500q42 0 86 -13t76 -35q17 -11 17 -32q0 -16 -11.5 -27.5t-27.5 -11.5q-12 0 -22 7q-15 10 -55 22t-63 12q-63 0 -109 -40q-54 -46 -53 -132t54 -132q46 -40 108 -40q23 0 63 12t55 22q10 7 22 7q16 0 27.5 -11.5t11.5 -27.5q0 -21 -17 -32q-32 -22 -76 -35t-86 -13
q-92 0 -159 59q-80 70 -81 191t80 191q68 59 160 59z" />
    <glyph glyph-name="d" unicode="d" 
d="M439 701q17 0 29 -12t12 -29v-620q0 -17 -11.5 -29t-28.5 -12t-28.5 12t-11.5 29v15q-11 -8 -22 -15q-68 -41 -119 -40q-42 1 -77 22t-58 56q-44 65 -44 162q0 109 58 184.5t142 75.5q56 0 120 -21v181q0 17 11.5 28.5t27.5 12.5zM280 420q-44 0 -82 -50t-38 -130
q0 -73 30 -118q27 -41 71 -42q27 -1 75 28q33 21 64 49v237q-68 26 -120 26z" />
    <glyph glyph-name="e" unicode="e" 
d="M280 500q89 0 143 -61q55 -62 57 -172q1 -4 1 -7q0 -16 -12 -28q0 -1 -1 -1q-12 -12 -28 -12q-3 0 -6 1h-292q7 -68 40 -103q34 -37 98 -37q85 0 107 32q5 8 14.5 13.5t18.5 5.5q17 0 28.5 -12t11.5 -28q0 -13 -7 -23q-45 -68 -173 -68q-99 0 -157 63q-63 68 -63 197
q0 115 69 181q61 59 151 59zM280 420q-57 0 -95 -36q-33 -32 -42 -84h255q-8 55 -35 86q-30 34 -83 34z" />
    <glyph glyph-name="f" unicode="f" 
d="M399 701h40h1q17 0 28.5 -12t11.5 -28.5t-11.5 -28t-28.5 -11.5h-1h-40q-52 0 -89 -28q-31 -23 -31 -52v-120h160h1q17 0 28.5 -12t11.5 -28.5t-11.5 -28t-28.5 -11.5h-1h-160v-300v-1q0 -17 -11.5 -28.5t-28 -11.5t-28.5 11.5t-12 28.5v1v300h-100q-17 0 -28.5 11.5
t-11.5 28t11.5 28.5t28.5 12h100v120q0 69 63 116q58 44 137 44z" />
    <glyph glyph-name="g" unicode="g" 
d="M280 500h160h1q16 0 28 -11.5t12 -28.5t-12 -28.5t-28 -11.5h-1h-4q24 -37 24 -80q0 -64 -51 -112t-129 -48q-7 0 -15 1l-31 -63q17 2 46 2q79 0 138 -46q62 -48 62 -114t-62 -114q-59 -46 -138 -46t-138 46q-62 48 -62 114v1q0 16 11.5 27.5t27.5 12.5h1q17 0 28.5 -12
t11.5 -28v-1q0 -27 31 -51q38 -29 89 -29t89 29q31 24 31 51t-31 51q-38 29 -89 29q-36 0 -50.5 -2t-51.5 -14q-9 -5 -18 -5q-12 0 -21 6q-8 5 -14 15t-6 20q0 13 8 24l60 119q-41 21 -64 58t-23 79q0 64 51 112t129 48zM280 420q-49 0 -74.5 -24.5t-25.5 -55.5t25.5 -55.5
t74.5 -24.5t74.5 24.5t25.5 55.5t-25.5 55.5t-74.5 24.5z" />
    <glyph glyph-name="h" unicode="h" 
d="M119 701q17 0 29 -12t12 -29v-235q5 5 8 7q76 68 152 68q80 0 124 -52q36 -43 36 -108v-300q0 -17 -11.5 -29t-28.5 -12t-28.5 12t-11.5 29v300q0 36 -17 57q-20 23 -63 23q-46 0 -99 -47q-43 -39 -61 -80v-253q0 -17 -11.5 -29t-28.5 -12t-28.5 12t-11.5 29v620
q0 17 11.5 28.5t27.5 12.5z" />
    <glyph glyph-name="i" unicode="i" 
d="M270 700q29 0 49.5 -20.5t20.5 -49.5t-20.5 -49.5t-49.5 -20.5t-49.5 20.5t-20.5 49.5t20.5 49.5t49.5 20.5zM279 501q17 0 29 -12q1 0 1 -1q14 -14 11 -34v-374h120q17 0 29 -11.5t12 -28.5t-12 -28.5t-29 -11.5h-320q-17 0 -29 11.5t-12 28.5t12 28.5t29 11.5h120v340
h-80q-17 0 -29 11.5t-12 28.5t12 28.5t29 11.5h114q2 0 5 1z" />
    <glyph glyph-name="j" unicode="j" 
d="M360 700q29 0 49.5 -20.5t20.5 -49.5t-20.5 -49.5t-49.5 -20.5t-49.5 20.5t-20.5 49.5t20.5 49.5t49.5 20.5zM399 501q17 0 29 -12q1 0 1 -1q14 -14 11 -34v-454q0 -82 -59 -141t-141 -59q-83 0 -141 59q-13 11 -13 28t12 29t29 11.5t28 -12.5q35 -35 85 -35t85 35t35 85
v420h-160q-17 0 -29 11.5t-12 28.5t12 28.5t29 11.5h194q2 0 5 1z" />
    <glyph glyph-name="k" unicode="k" 
d="M119 701h1q17 0 28.5 -12t11.5 -28v-1v-372q1 3 2 7q5 12 16 19l195 176q12 10 27 10h1q17 0 28 -11.5t11 -28.5q0 -18 -13 -30l-169 -152l210 -210q13 -12 13 -29q0 -16 -12 -28t-28 -12q-17 0 -29 13l-233 233q-15 9 -19 26v-231v-1q0 -16 -11.5 -28t-28.5 -12
t-28.5 12t-11.5 28v1v620v1q0 16 11.5 27.5t27.5 12.5z" />
    <glyph glyph-name="l" unicode="l" 
d="M279 701q17 0 29 -12q1 0 1 -1q14 -14 11 -34v-574h121q16 0 28 -11.5t12 -28.5t-12 -28.5t-28 -11.5h-321q-17 0 -29 11.5t-12 28.5t12 28.5t29 11.5h120v540h-40q-17 0 -29 11.5t-12 28.5t12 28.5t29 11.5h74q2 0 5 1z" />
    <glyph glyph-name="m" unicode="m" 
d="M79 501q17 0 29 -12t12 -29q36 40 80 40q28 0 53 -12.5t40 -33.5q5 -7 10 -15q43 61 97 61q28 0 53 -12.5t40 -33.5q27 -37 27 -94v-320q0 -17 -11.5 -29t-28.5 -12t-28.5 12t-11.5 29v320q0 31 -12 47q-9 13 -28 13q-2 0 -7.5 -3.5t-14.5 -13t-17 -22.5q-23 -35 -41 -88
v-253q0 -17 -11.5 -29t-28.5 -12t-28.5 12t-11.5 29v320q0 31 -12 47q-9 13 -28 13q-2 0 -7.5 -3.5t-14.5 -13t-17 -22.5q-23 -35 -41 -88v-253q0 -17 -11.5 -29t-28.5 -12t-28.5 12t-11.5 29v420q0 17 11.5 28.5t27.5 12.5z" />
    <glyph glyph-name="n" unicode="n" 
d="M119 501q17 0 29 -12t12 -29v-35q5 5 8 7q76 68 152 68q80 0 124 -52q36 -43 36 -108v-300q0 -17 -11.5 -29t-28.5 -12t-28.5 12t-11.5 29v300q0 36 -17 57q-20 23 -63 23q-46 0 -99 -47q-43 -39 -61 -80v-253q0 -17 -11.5 -29t-28.5 -12t-28.5 12t-11.5 29v420
q0 17 11.5 28.5t27.5 12.5z" />
    <glyph glyph-name="o" unicode="o" 
d="M280 500q91 0 151 -60q69 -69 69 -190t-69 -190q-60 -60 -151 -60t-151 60q-69 69 -69 190t69 190q60 60 151 60zM280 420q-58 0 -95 -37q-45 -45 -45 -133t45 -133q37 -37 95 -37t95 37q45 45 45 133t-45 133q-37 37 -95 37z" />
    <glyph glyph-name="p" unicode="p" 
d="M119 501q17 0 29 -12t12 -29v-15q11 8 22 15q68 41 119 40q42 -1 77 -22t58 -56q44 -65 44 -162q0 -109 -58 -184.5t-142 -75.5q-56 0 -120 21v-181q0 -17 -11.5 -29t-28.5 -12t-28.5 12t-11.5 29v620q0 17 11.5 28.5t27.5 12.5zM297 420q-27 0 -73 -28q-33 -21 -64 -49
v-237q68 -26 120 -26q44 0 82 50t38 130q0 73 -30 118q-27 41 -71 42h-2z" />
    <glyph glyph-name="q" unicode="q" 
d="M439 501q17 0 29 -12t12 -29v-620q0 -17 -11.5 -29t-28.5 -12t-28.5 12t-11.5 29v215q-11 -8 -22 -15q-68 -41 -119 -40q-42 1 -77 22t-58 56q-44 65 -44 162q0 109 58 184.5t142 75.5q58 0 124 -22q5 10 14.5 16t20.5 7zM280 420q-44 0 -82 -50t-38 -130q0 -73 30 -118
q27 -41 71 -42q27 -1 75 28q33 21 64 49v237q-68 26 -120 26z" />
    <glyph glyph-name="r" unicode="r" 
d="M119 501q17 0 29 -12t12 -29v-35q5 5 8 7q76 68 152 68q80 0 124 -52q36 -43 36 -108q0 -17 -11.5 -29t-28.5 -12t-28.5 12t-11.5 29q0 36 -17 57q-20 23 -63 23q-46 0 -99 -47q-43 -39 -61 -80v-253q0 -17 -11.5 -29t-28.5 -12t-28.5 12t-11.5 29v420q0 17 11.5 28.5
t27.5 12.5z" />
    <glyph glyph-name="s" unicode="s" 
d="M240 500q50 0 105 -12.5t93 -31.5q9 -5 16 -15.5t7 -20.5q0 -17 -12 -28.5t-28 -11.5q-10 0 -19 4q-24 13 -75 24.5t-87 11.5q-33 0 -58 -19q-22 -17 -22 -41q0 -5 5 -10q9 -9 29 -19q12 -5 28.5 -10.5t38.5 -12.5t32 -10q3 -1 29.5 -9t44.5 -15t36 -17
q32 -17 54.5 -47.5t22.5 -69.5q0 -40 -23.5 -70.5t-57.5 -45.5q-51 -24 -119 -24q-56 0 -107 18t-84 56q-10 12 -10 27q0 17 12 28.5t28 11.5q20 0 32 -15q14 -17 54 -31.5t75 -14.5q50 0 86 16q19 9 26.5 18t7.5 26t-7.5 26.5t-27.5 20.5q-9 5 -22 10t-23 8.5t-27 8.5
t-26 8q-7 2 -29 9t-41 13.5t-36 14.5q-34 15 -53 35q-28 29 -28 66q0 63 53 104q46 36 107 36z" />
    <glyph glyph-name="t" unicode="t" 
d="M159 701h1q17 0 28.5 -12t11.5 -28v-1v-160h180h1q16 0 28 -11.5t12 -28.5t-12 -28.5t-28 -11.5h-1h-180v-260q0 -30 31 -53q36 -27 89 -27h80h1q16 0 28 -11.5t12 -28.5t-12 -28.5t-28 -11.5h-1h-80q-80 0 -137 43q-63 47 -63 117v260h-40h-1q-16 0 -28 11.5t-12 28.5
t12 28.5t28 11.5h1h40v160v1q0 16 11.5 27.5t27.5 12.5z" />
    <glyph glyph-name="u" unicode="u" 
d="M119 501q17 0 29 -12t12 -29v-300q0 -36 17 -57q20 -23 63 -23q46 0 99 47q43 39 61 80v253q0 17 11.5 28.5t27.5 12.5q17 0 29 -12t12 -29v-420q0 -17 -11.5 -29t-28.5 -12t-28.5 12t-11.5 29v35q-5 -5 -8 -7q-76 -68 -152 -68q-80 0 -124 52q-36 43 -36 108v300
q0 17 11.5 28.5t27.5 12.5z" />
    <glyph glyph-name="v" unicode="v" 
d="M121 501q11 -1 21.5 -8.5t14.5 -18.5l123 -322l123 322q4 11 15 19t22 8q1 0 2 -1q16 0 27 -12t11 -27q0 -8 -3 -15l-158 -415q-2 -12 -13 -21.5t-24 -9.5q-1 -1 -2 -1h-1q-2 1 -4 1q-11 1 -21.5 10t-12.5 21l-158 415q-3 7 -3 15q0 16 11.5 28t28.5 12h1z" />
    <glyph glyph-name="w" unicode="w" 
d="M80 501q14 0 25.5 -10t13.5 -23l49 -255l72 254q3 13 14 23t24 10l1 1v0h1.5t1.5 -1h2h1q12 -1 22 -11t13 -22l72 -254l49 255q2 13 13.5 22.5t24.5 10.5h1q17 0 28.5 -12t11.5 -28q0 -5 -1 -9l-79 -417l-2 -6q-3 -12 -14 -21t-24 -9q-15 0 -26.5 10.5t-13.5 24.5
l-80 280l-80 -280q-2 -14 -13.5 -24.5t-26.5 -10.5q-12 0 -23 8.5t-15 19.5v1v1l-2 6l-79 417q-1 4 -1 9q0 16 11.5 27.5t28.5 12.5z" />
    <glyph glyph-name="x" unicode="x" 
d="M121 500q19 0 31 -16l128 -168l128 168q12 16 32 16h2q16 0 27 -12t11 -28q0 -13 -8 -24l-142 -186l142 -186q8 -11 8 -24q0 -17 -11.5 -28.5t-28.5 -11.5q-20 0 -32 16l-128 168l-128 -168q-12 -16 -32 -16q-17 0 -28.5 11.5t-11.5 28.5q0 13 8 24l142 186l-142 186
q-8 11 -8 24q0 17 11.5 28.5t28.5 11.5h1z" />
    <glyph glyph-name="y" unicode="y" 
d="M121 500q10 0 20 -6.5t15 -15.5l140 -280l107 276q4 11 14 18.5t21 7.5q1 1 2 1q17 0 28.5 -12t11.5 -28q0 -8 -3 -15l-240 -620q-4 -11 -15 -18.5t-22 -7.5q-17 0 -28.5 11.5t-11.5 28.5q0 7 3 14l94 243l-173 345q-4 9 -4 19q0 16 11.5 28t28.5 12z" />
    <glyph glyph-name="z" unicode="z" 
d="M442 500q20 0 31 -17q1 -2 2 -3v0q1 -2 1.5 -3.5t1.5 -2.5v-1q3 -6 3 -13q0 -17 -13 -29l-267 -351h239h1q16 0 28 -11.5t12 -28.5t-12 -28.5t-28 -11.5h-1h-315h-5q-19 0 -31 14l-0.5 0.5l-1.5 1.5q-1 2 -2 3q-6 10 -6 21q0 17 13 29l267 351h-239h-1q-16 0 -28 11.5
t-12 28.5t12 28.5t28 11.5h1h314h6h2z" />
    <glyph glyph-name="braceleft" unicode="{" 
d="M360 700h1q16 0 28 -11.5t12 -28.5t-12 -28.5t-28 -11.5h-1q-34 0 -55 -24q-25 -27 -25 -76q0 -26 19 -96q1 -6 6.5 -25.5t7.5 -28t4.5 -22.5t2.5 -25v-1v-2v-1v0v-1v-1q-1 -21 -18 -43q-10 -12 -23 -24q13 -12 23 -24q16 -22 18 -42v-3v-1v0v0q0 -12 -2.5 -26.5
t-4.5 -22.5t-7.5 -28.5t-6.5 -26.5q-19 -70 -19 -96q0 -49 25 -76q21 -24 55 -24h1q16 0 28 -11.5t12 -28.5t-12 -28.5t-28 -11.5h-1q-69 0 -114.5 50t-45.5 130q0 36 21 117q15 55 19 78l-2 2q-6 8 -16.5 16.5t-19.5 14.5q-2 1 -5 1q-2 1 -1 1h4h-3q-15 1 -26 12.5
t-11 27.5q0 17 11.5 28.5t28.5 11.5h-4h-1q4 1 7 2q9 6 19.5 14.5t16.5 16.5l2 2q-4 23 -19 78q-21 81 -21 117q0 80 45.5 130t114.5 50z" />
    <glyph glyph-name="bar" unicode="|" 
d="M279 701h1q17 0 28.5 -12t11.5 -28v-1v-820v-1q0 -16 -11.5 -28t-28.5 -12t-28.5 12t-11.5 28v1v820v1q0 16 11.5 27.5t27.5 12.5z" />
    <glyph glyph-name="braceright" unicode="}" 
d="M200 700q69 0 114.5 -50t45.5 -130q0 -36 -21 -117q-15 -55 -19 -78l2 -2q6 -8 16.5 -16.5t19.5 -14.5q2 -1 5 -1q2 -1 1 -1h-4h3q15 -1 26.5 -12.5t11.5 -27.5q0 -12 -7 -22q-1 -2 -2 -3q-7 -8 -16 -12q-2 -1 -4 -1q-6 -2 -11 -2h-1h4h1q-4 -1 -7 -2q-9 -6 -19.5 -14.5
t-16.5 -16.5l-2 -2q4 -23 19 -78q21 -81 21 -117q0 -80 -45.5 -130t-114.5 -50h-1q-16 0 -28 11.5t-12 28.5t12 28.5t28 11.5h1q34 0 55 24q25 27 25 76q0 26 -19 96q-1 6 -6.5 26.5t-7.5 28.5t-4.5 22.5t-2.5 26.5v1v0v1v1q1 21 18 43q10 12 23 24q-13 12 -23 24
q-16 22 -18 42v1v2v0v1v1v1q0 11 2.5 25.5t4.5 22.5t7.5 28t6.5 26q19 70 19 96q0 49 -25 76q-21 24 -55 24h-1q-16 0 -28 11.5t-12 28.5t12 28.5t28 11.5h1z" />
    <glyph glyph-name="asciitilde" unicode="~" 
d="M180 370q50 0 89 -38q25 -23 46 -63q16 -30 31 -44q16 -15 34 -15q20 0 40 20.5t20 39.5v1q0 16 11.5 28t28.5 12t28.5 -12t11.5 -28v-1q0 -57 -41 -98.5t-99 -41.5q-50 0 -89 37q-24 23 -46 64q-15 29 -31 43q-16 16 -34 16q-21 0 -40.5 -19.5t-19.5 -40.5v-1
q0 -16 -11.5 -28t-28.5 -12t-28.5 12t-11.5 28v1q0 54 43 97t97 43z" />
    <glyph glyph-name="copyright" unicode="&#xa9;" 
d="M280 500q100 0 170 -73.5t70 -176.5t-70 -176.5t-170 -73.5t-170 73.5t-70 176.5t70 176.5t170 73.5zM280 420q-66 0 -113 -49.5t-47 -120.5t47 -120.5t113 -49.5t113 49.5t47 120.5t-47 120.5t-113 49.5zM280 400q52 0 88 -44q9 -11 9 -26q0 -16 -11.5 -28t-28.5 -12
q-20 0 -32 16q-11 14 -25 14q-10 0 -23 -21q-17 -27 -17 -59q0 -27 13 -43.5t27 -16.5q13 0 16 1q2 1 5 7q5 9 15 15t21 6q16 0 28 -11.5t12 -28.5q0 -9 -5 -18q-17 -32 -46 -44q-17 -7 -46 -7q-52 0 -86 42t-34 98q0 55 30 102q36 58 90 58z" />
    <glyph glyph-name="registered" unicode="&#xae;" 
d="M280 500q100 0 170 -73.5t70 -176.5t-70 -176.5t-170 -73.5t-170 73.5t-70 176.5t70 176.5t170 73.5zM280 420q-66 0 -113 -49.5t-47 -120.5t47 -120.5t113 -49.5t113 49.5t47 120.5t-47 120.5t-113 49.5zM268 381h17h25q29 0 53 -20q27 -22 27 -60q0 -42 -34 -76l-7 -7
l29 -29q12 -12 12.5 -28.5t-11.5 -28.5t-29 -12t-28 12l-52 52v-23q0 -17 -11.5 -29t-28.5 -12t-28.5 12t-11.5 29v180q0 22 9 31t31 9h16h22zM287 302h-17v-45q6 5 16 12.5t14 11.5q2 1 4.5 3.5t3 3.5t2 2.5t1 2t-0.5 3.5q-2 6 -23 6z" />
    <glyph glyph-name="kokaithai" unicode="&#xe01;" 
d="M100 500h180q80 0 137 -43q63 -47 63 -117v-300v-1q0 -16 -11.5 -28t-28.5 -12t-28.5 12t-11.5 28v1v300q0 30 -31 53q-36 27 -89 27h-120v-380v-1q0 -16 -11.5 -28t-28.5 -12t-28.5 12t-11.5 28v1v385q-8 5 -14.5 15t-6.5 20q0 17 12 28.5t28 11.5h1z" />
    <glyph glyph-name="khokhaithai" unicode="&#xe02;" 
d="M439 501h1q17 0 28.5 -12t11.5 -28q0 -6 -2 -12l-118 -416q-3 -14 -14.5 -23.5t-25.5 -9.5q-12 0 -23 7.5t-15 19.5v1v1l-100 339v0v1q-10 31 -21 43q-4 5 -7 6q-5 -8 -15 -13t-19 -5q-17 0 -28.5 11.5t-11.5 28.5q0 24 18 42t42 18h2q48 -1 78 -34q24 -26 38 -74v-1
l61 -207l83 287q3 12 13.5 20.5t23.5 9.5z" />
    <glyph glyph-name="khokhuatthai" unicode="&#xe03;" 
d="M439 501h1q17 0 28.5 -12t11.5 -28q0 -6 -2 -12l-118 -415q-2 -14 -13.5 -24.5t-26.5 -10.5q-13 0 -24.5 9.5t-14.5 22.5v0l-83 350l-4 -4q-5 -7 -14.5 -12.5t-18.5 -5.5h-1h-1q-21 0 -33 18l-54 55q-12 11 -12 28t11.5 28.5t28.5 11.5t28 -12l32 -31l28 27q11 16 30 16
q1 1 2 1q5 0 11 -2q1 0 2 -1h1q10 -3 17.5 -13.5t8.5 -20.5l64 -266l78 273q3 12 13.5 20.5t23.5 9.5z" />
    <glyph glyph-name="khokhwaithai" unicode="&#xe04;" 
d="M280 500q79 0 138 -46q62 -48 62 -114v-300v-1q0 -16 -11.5 -28t-28.5 -12t-28.5 12t-11.5 28v1v300q0 27 -31 51q-38 29 -89 29t-89 -29q-31 -24 -31 -51v-97q2 1 3 2q56 35 97 35h3q22 -1 39 -18q18 -18 18 -42q0 -17 -11.5 -28.5t-28.5 -11.5q-21 0 -33 17
q-21 -7 -41 -20q-23 -14 -46 -34v-103v-1q0 -16 -11.5 -28t-28.5 -12t-28.5 12t-11.5 28v1v113q-1 3 -1 6.5t1 6.5v174q0 66 62 114q59 46 138 46z" />
    <glyph glyph-name="khokhonthai" unicode="&#xe05;" 
d="M119 501h1q13 0 23 -8l137 -68l137 68q10 7 22 8h1q12 0 22 -7q8 -5 13 -15t5 -19v-6v-414v-1q0 -16 -11.5 -28t-28.5 -12t-28.5 12t-11.5 28v1v355l-96 -48q-10 -7 -23 -7h-1h-1q-13 0 -23 7l-96 48v-152q2 1 3 2q56 35 97 35h3q22 -1 39 -18q18 -18 18 -42
q0 -17 -11.5 -28.5t-28.5 -11.5q-21 0 -33 17q-21 -7 -41 -20q-23 -14 -46 -34v-103v-1q0 -16 -11.5 -28t-28.5 -12t-28.5 12t-11.5 28v1v113q-1 3 -1 6.5t1 6.5v288q-1 3 -1 6q0 21 18 33q1 1 3 2q9 5 19 6z" />
    <glyph glyph-name="khorakhangthai" unicode="&#xe06;" 
d="M199 501h1q8 0 15 -3q2 -1 3 -2h1q9 -5 15 -15t6 -21v-5v-234l160 -106v345v1q0 16 11.5 27.5t27.5 12.5h1q17 0 28.5 -12t11.5 -28v-1v-414v-6q0 -11 -7 -22t-16 -15h-1q-8 -4 -16 -4q-15 0 -27 11l-173 115v-85v-1q0 -16 -11.5 -28t-28.5 -12t-28.5 12t-11.5 28v1v120
h-20h-1q-16 0 -28 11.5t-12 28.5t12 28.5t28 11.5h1h20v124q-9 -5 -19 -5h-1h-1q-21 0 -33 18l-54 55q-12 12 -12 28q0 17 11.5 28.5t28.5 11.5q16 0 28 -12l32 -31l28 28q12 15 31 16z" />
    <glyph glyph-name="ngonguthai" unicode="&#xe07;" 
d="M408 500q4 0 9 -1q8 0 15 -4q1 -1 2 -1q3 -2 7 -5q51 -41 43 -119q-5 -61 -49 -139v-1l-1 -1l-118 -206q-1 -3 -3 -6l-1 -1v0q-12 -17 -33 -17q-13 0 -24.5 9.5t-14.5 23.5l-157 372q-3 8 -3 17q0 16 11.5 27.5t27.5 12.5h1q11 0 22 -7.5t15 -17.5l128 -306l80 139
q35 64 40 109q2 19 -2 30q-7 -3 -15 -3q-16 0 -28 12t-12 28q0 6 2 12q7 23 29 35q13 7 26 8h3z" />
    <glyph glyph-name="chochanthai" unicode="&#xe08;" 
d="M140 500h160q86 0 132 -36q45 -35 48 -98v-5q0 -5 -1 -10q-1 -7 -5 -13l-158 -316q-5 -9 -15.5 -16t-20.5 -7q-17 0 -28.5 12t-11.5 28q0 10 4 19l57 113q-6 24 -18 38q-6 6 -10 8q-12 -17 -33 -17q-17 0 -28.5 11.5t-11.5 28.5q0 24 18 42t42 18h2q48 -1 81 -39l2 -2
l55 110q-2 20 -17 32q-25 19 -83 19h-160h-1q-16 0 -28 11.5t-12 28.5t12 28.5t28 11.5h1z" />
    <glyph glyph-name="chochingthai" unicode="&#xe09;" 
d="M120 500h160q80 0 137 -43q63 -47 63 -117v-100h1q16 0 28 -11.5t12 -28.5t-12 -28.5t-28 -11.5h-1v-120v-1q0 -16 -11.5 -28t-28.5 -12t-28.5 12t-11.5 28v1v81l-152 -110q-12 -12 -28 -12q-5 0 -9 1q-1 1 -1.5 1h-1.5q-12 4 -20.5 15t-8.5 24q0 3 1 6v114q0 24 -7 35
l-1 1q-12 -16 -32 -16q-17 0 -28.5 11.5t-11.5 28.5q0 24 18 42q16 16 38 18h4h2q24 -1 45 -12t33 -30q20 -30 20 -78v-41l140 101v120q0 30 -31 53q-36 27 -89 27h-160h-1q-16 0 -28 11.5t-12 28.5t12 28.5t28 11.5h1z" />
    <glyph glyph-name="chochangthai" unicode="&#xe0a;" 
d="M482 540q16 0 27 -12t11 -28q0 -18 -14 -30l-109 -96q20 -15 37 -36q46 -59 46 -138t-46 -138q-48 -62 -114 -62h-114q-3 -1 -6 -1t-6 1h-34h-1q-16 0 -28 11.5t-12 28.5t12 28.5t28 11.5h1v300q0 24 -7 35q-3 4 -4 4.5t-9 0.5q-12 0 -20 -3q-1 -15 -13 -26t-27 -11
q-17 0 -28.5 11.5t-11.5 28.5q0 20 11.5 38.5t27.5 27.5q25 14 61 14h3q23 -1 44 -12.5t33 -29.5q20 -30 20 -78v-300h80q27 0 51 31q29 38 29 89t-29 89q-22 28 -47 31q-2 -1 -5 -1q-16 0 -28 12t-12 28q0 2 1 4v3q3 18 18 27l156 137q11 10 26 10h2z" />
    <glyph glyph-name="sosothai" unicode="&#xe0b;" 
d="M482 540q16 0 27 -12t11 -28q0 -18 -14 -30l-109 -96q20 -15 37 -36q46 -59 46 -138t-46 -138q-48 -62 -114 -62h-160h-1q-16 0 -28 11.5t-12 28.5t12 28.5t28 11.5h1v284q-9 -5 -19 -5h-2q-21 1 -33 18l-54 55q-12 11 -12 28t11.5 28.5t28.5 11.5t28 -12l32 -31l28 28
q12 15 31 16h1q8 0 15 -3l4 -2q9 -5 15 -15t6 -21v-5v-375h80q27 0 51 31q29 38 29 89t-29 89q-22 28 -47 31q-2 -1 -5 -1q-16 0 -28 12t-12 28q0 2 1 4v3q3 18 18 27l156 137q11 10 26 10h2z" />
    <glyph glyph-name="chochoethai" unicode="&#xe0c;" 
d="M479 501h1q17 0 28.5 -12t11.5 -28v-1v-414v-6q0 -11 -6.5 -21.5t-16.5 -15.5h-1q-8 -4 -16 -4q-15 0 -27 11l-113 75v-45v-1q0 -16 -11.5 -28t-28.5 -12t-28.5 12t-11.5 28v1v80h-1q-16 0 -28 11.5t-12 28.5t12 28.5t28 11.5h1v140q0 39 -17 59q-19 21 -63 21h-60v-300
q0 -24 7 -35l1 -1q11 16 31 17h1q17 0 28.5 -12t11.5 -28v-1q0 -24 -18 -42q-16 -16 -38 -18h-4h-1h-1q-24 1 -45 12t-33 30q-20 30 -20 78v305q-8 5 -14 15t-6 20q0 17 11.5 28.5t28.5 11.5h120q81 0 123 -49q37 -42 37 -111v-159l100 -66v345v1q0 16 11.5 27.5t27.5 12.5z
" />
    <glyph glyph-name="yoyingthai" unicode="&#xe0d;" 
d="M479 501h1q17 0 28.5 -12t11.5 -28v-1v-330q0 -53 -38.5 -91.5t-91.5 -38.5h-84q-3 -1 -6 -1q-17 0 -29 13q-12 12 -12 28q0 3 1 6v294q0 39 -17 59q-19 21 -63 21h-60v-300q0 -24 7 -35l1 -1q11 16 31 17h1q17 0 28.5 -12t11.5 -28v-1q0 -24 -18 -42t-42 -18h-1h-1
q-24 1 -45 12t-33 30q-20 30 -20 78v305q-8 5 -14 15t-6 20q0 17 11.5 28.5t28.5 11.5h120q81 0 123 -49q37 -42 37 -111v-260h50q21 0 35.5 14.5t14.5 35.5v330v1q0 16 11.5 27.5t27.5 12.5zM279 -39h1q17 0 28.5 -12t11.5 -28v-1h160h1q16 0 28 -11.5t12 -28.5t-12 -28.5
t-28 -11.5h-1h-194q-3 -1 -6 -1q-17 0 -29 13q-12 12 -12 28q0 3 1 6v34v1q0 16 11.5 27.5t27.5 12.5z" />
    <glyph glyph-name="dochadathai" unicode="&#xe0e;" 
d="M120 500h160q80 0 137 -43q63 -47 63 -117v-494v-6q0 -11 -6.5 -21.5t-16.5 -15.5h-1q-8 -4 -16 -4q-15 0 -27 11l-86 57l-43 -49q-6 -8 -15 -13q-9 -6 -19 -6q-4 0 -7 1h-163h-1q-16 0 -28 11.5t-12 28.5t12 28.5t28 11.5h1h152l54 61q9 16 27 19h7h1q15 0 27 -10
l52 -35v425q0 30 -31 53q-36 27 -89 27h-80v-300q0 -48 -20 -78q-12 -19 -34 -30.5t-46 -11.5h-3q-22 1 -39 18q-18 18 -18 42v1q0 16 11.5 27.5t27.5 12.5h1q20 0 32 -17l1 1q7 11 7 35v300h-1q-16 0 -28 11.5t-12 28.5t12 28.5t28 11.5h1z" />
    <glyph glyph-name="topatakthai" unicode="&#xe0f;" 
d="M120 500h160q80 0 137 -43q63 -47 63 -117v-494q1 -3 1 -7q0 -16 -12 -28t-28 -12q-1 0 -2 1q-19 0 -31 15l-46 47l-37 -42q-5 -9 -15 -15t-19 -6h-1h-1q-21 0 -33 18l-44 45l-38 -44q-6 -8 -15 -13q-9 -6 -19 -6q-4 0 -7 1h-53h-1q-16 0 -28 11.5t-12 28.5t12 28.5
t28 11.5h1h42l54 61q10 18 30 19h2h2h1q20 0 32 -16l45 -45l38 42q10 18 30 19h2h2h1q20 0 32 -16l7 -7v403q0 30 -31 53q-36 27 -89 27h-80v-300q0 -48 -20 -78q-12 -19 -34 -30.5t-46 -11.5h-3q-22 1 -39 18q-18 18 -18 42v1q0 16 11.5 27.5t27.5 12.5h1q20 0 32 -17l1 1
q7 11 7 35v300h-1q-16 0 -28 11.5t-12 28.5t12 28.5t28 11.5h1z" />
    <glyph glyph-name="thothanthai" unicode="&#xe10;" 
d="M141 501h120h220q17 0 28.5 -12t11.5 -28.5t-11.5 -28t-28.5 -11.5h-55q32 -44 34 -94q1 -3 1 -6q0 -5 -1 -10q-2 -6 -6 -12l-18 -36l-40 -80l-80 -160q-4 -10 -14.5 -16.5t-21.5 -6.5q-16 0 -28 11.5t-12 28.5q0 10 5 18l57 114q-7 24 -19 37q-5 6 -9 9q-12 -18 -33 -18
q-17 0 -28.5 12t-11.5 28v1q0 24 17.5 42t42.5 18h2q47 -1 80 -39q2 -1 2 -2l20 38l15 31q-5 31 -37.5 61.5t-81.5 30.5h-120h-1q-17 0 -28.5 11.5t-11.5 28t11.5 28.5t28.5 12h1zM381 41h40q24 0 42 -18t18 -42v-40v-94v-7q0 -16 -11.5 -28t-28.5 -12h-1q-17 0 -28 12
q-2 2 -3 4l-47 46l-36 -42q-3 -5 -7 -8q-11 -12 -28 -12v0q-16 0 -27 10q-4 3 -7 8l-45 44l-37 -43q-3 -4 -6 -7q-4 -4 -9 -7v0q-8 -4 -17 -5q-5 0 -10 1h-52q-17 -1 -29 11t-12 28.5t12 28.5t29 12h41l54 61q5 7 12 12q10 7 22 7h1q12 0 22 -6q6 -5 11 -11l45 -45l37 43
q5 7 12 12q10 7 22 7h1q12 0 22 -6q6 -5 11 -11l7 -7v4v20h-20h-1q-17 0 -28.5 11.5t-11.5 28t11.5 28.5t28.5 12h1z" />
    <glyph glyph-name="thonangmonthothai" unicode="&#xe11;" 
d="M199 501q9 0 16 -3q2 -1 3 -2h1q11 -6 17 -17t4 -24v-9q54 54 120 54q37 0 66 -17.5t41 -43.5q3 -7 5.5 -14.5t3.5 -16t2 -13.5t1.5 -15t0.5 -13v-14.5v-12.5v-300q0 -17 -11.5 -29t-28.5 -12t-28.5 12t-11.5 29v300q0 51 -7 66q-3 7 -4 9t-7.5 3.5t-21.5 1.5
q-40 0 -75 -43q-27 -33 -45 -84v-253q0 -17 -11.5 -29t-28.5 -12t-28.5 12t-11.5 29v324q-10 -5 -20 -5q-22 0 -34 18l-54 55q-9 8 -11.5 20t2 23.5t14.5 18t23 6.5q16 0 28 -12l32 -31l28 28q12 15 31 16z" />
    <glyph glyph-name="thophuthaothai" unicode="&#xe12;" 
d="M79 501h1q15 0 27 -11l93 -62l93 62q11 10 26 11h1q9 0 17 -4q1 -1 2 -1q9 -5 15 -15.5t6 -20.5v-6v-274l80 -60v340v1q0 16 11.5 27.5t27.5 12.5h1q17 0 28.5 -12t11.5 -28v-1v-415v-5q0 -10 -5.5 -20t-14.5 -15q-1 -1 -1.5 -1t-1.5 -1q-8 -4 -17 -4q-17 0 -29 12
l-91 69v-40v-1q0 -16 -11.5 -28t-28.5 -12t-28.5 12t-11.5 28v1v80h-1q-16 0 -28 11.5t-12 28.5t12 28.5t28 11.5h1v185l-52 -35q-12 -10 -27 -10h-1q-16 0 -28 11l-52 34v-260q9 11 16 22q19 33 25 67q-13 4 -21.5 15t-8.5 24q0 15 10 26q15 19 41 21h10q14 -1 25 -8
q11 -5 17 -15q4 -8 5 -17q16 -68 -35 -153q-47 -80 -104 -102q-9 -6 -20 -6q-5 0 -11 2q-1 0 -2 1q-11 3 -19.5 14.5t-8.5 23.5q0 4 1 8v406v6q0 10 6 20.5t14 14.5l1 1q9 4 18 5z" />
    <glyph glyph-name="nonenthai" unicode="&#xe13;" 
d="M479 501h1q17 0 28.5 -12t11.5 -28v-1v-260h1q16 0 28 -11.5t12 -28.5t-12 -28.5t-28 -11.5h-1v-80v-1q0 -16 -11.5 -28t-28.5 -12t-28.5 12t-11.5 28v1v45l-113 -75q-12 -11 -27 -11q-9 0 -17 4q-10 5 -16.5 15.5t-6.5 21.5v6v294q0 39 -17 59q-19 21 -63 21h-60v-300
q0 -24 7 -35l1 -1q11 16 31 17h1q17 0 28.5 -12t11.5 -28v-1q0 -24 -18 -42t-42 -18h-1h-1q-24 1 -45 12t-33 30q-20 30 -20 78v305q-8 5 -14 15t-6 20q0 17 11.5 28.5t28.5 11.5h120q81 0 123 -49q37 -42 37 -111v-225l100 66v279v1q0 16 11.5 27.5t27.5 12.5z" />
    <glyph glyph-name="dodekthai" unicode="&#xe14;" 
d="M280 500q82 0 141 -59t59 -141v-260v-1q0 -16 -11.5 -28t-28.5 -12t-28.5 12t-11.5 28v1v260q0 50 -35 85t-85 35t-85 -35t-35 -85v-198q33 22 56 55q20 29 27 55v2q-13 2 -22.5 13.5t-9.5 25.5q0 15 10 26q15 19 41 21h10q15 -1 27 -9q7 -4 11 -10q4 -5 7 -11
q15 -33 3 -79q-10 -39 -39 -79q-62 -90 -146 -110q-7 -3 -15 -3q-10 0 -19 5v0q-9 5 -15.5 15.5t-6.5 20.5q0 4 1 8v252q0 82 59 141t141 59z" />
    <glyph glyph-name="totaothai" unicode="&#xe15;" 
d="M119 501h1q13 0 23 -8l137 -68l137 68q10 7 22 8h1q12 0 22 -7q8 -5 13 -15t5 -19v-6v-414v-1q0 -16 -11.5 -28t-28.5 -12t-28.5 12t-11.5 28v1v355l-96 -48q-10 -7 -23 -7h-1h-1q-13 0 -23 7l-96 48v-293q33 22 56 55q20 29 27 55v2q-13 2 -22.5 13.5t-9.5 25.5
q0 15 10 26q15 19 41 21h10q15 -1 27 -9q7 -4 11 -10q4 -5 7 -11q15 -33 3 -79q-10 -39 -39 -79q-62 -90 -146 -110q-7 -3 -15 -3q-10 0 -18 5h-1q-9 5 -15.5 15.5t-6.5 20.5q0 4 1 8v406q-1 3 -1 6q0 21 18 33q1 1 3 2q9 5 19 6z" />
    <glyph glyph-name="thothungthai" unicode="&#xe16;" 
d="M100 500h180q80 0 137 -43q63 -47 63 -117v-300v-1q0 -16 -11.5 -28t-28.5 -12t-28.5 12t-11.5 28v1v300q0 30 -31 53q-36 27 -89 27h-120v-300q0 -24 7 -35l1 -1q11 16 31 17h1q17 0 28.5 -12t11.5 -28v-1q0 -24 -18 -42t-42 -18h-1h-1q-24 1 -45 12t-33 30
q-20 30 -20 78v305q-8 5 -14.5 15t-6.5 20q0 17 12 28.5t28 11.5h1z" />
    <glyph glyph-name="thothahanthai" unicode="&#xe17;" 
d="M100 500h2q24 -1 45 -12t33 -30q9 -13 14 -30q0 1 0.5 1.5t1.5 0.5q67 70 144 70q37 0 66.5 -15t46.5 -40q27 -40 27 -105v-300q0 -17 -11.5 -29t-28.5 -12t-28.5 12t-11.5 29v300q0 40 -13 60q-7 11 -16.5 15.5t-30.5 4.5q-43 0 -87 -45q-36 -37 -53 -82v-253
q0 -17 -11.5 -29t-28.5 -12t-28.5 12t-11.5 29v340q0 24 -7 35l-1 1q-7 -11 -19.5 -14.5t-25 0.5t-20 14.5t-7.5 23.5q0 24 18 42t42 18z" />
    <glyph glyph-name="thothongthai" unicode="&#xe18;" 
d="M240 500q50 0 105 -12.5t93 -31.5q9 -5 16 -15.5t7 -20.5q0 -17 -12 -28.5t-28 -11.5q-10 0 -19 4q-24 13 -75 24.5t-87 11.5q-33 0 -58 -19q-22 -17 -22 -41q0 -5 5 -10q9 -9 29 -19q12 -5 28.5 -10.5t38.5 -12.5t32 -10q3 -1 29.5 -9t44.5 -15t36 -17
q32 -17 54.5 -47.5t22.5 -69.5q0 -40 -23.5 -70.5t-57.5 -45.5q-51 -24 -119 -24h-160h-1q-16 0 -28 11.5t-12 28.5t12 28.5t28 11.5h1v120v1q0 16 11.5 27.5t27.5 12.5h1q17 0 28.5 -12t11.5 -28v-1v-120h80q50 0 86 16q19 9 26.5 18t7.5 26t-7.5 26.5t-27.5 20.5
q-9 5 -22 10t-23 8.5t-27 8.5t-26 8q-7 2 -29 9t-41 13.5t-36 14.5q-34 15 -53 35q-28 29 -28 66q0 63 53 104q46 36 107 36z" />
    <glyph glyph-name="nonuthai" unicode="&#xe19;" 
d="M439 501h1q17 0 28.5 -12t11.5 -28v-1v-220h1q16 0 28 -11.5t12 -28.5t-12 -28.5t-28 -11.5h-1v-120v-1q0 -16 -11.5 -28t-28.5 -12t-28.5 12t-11.5 28v1v91l-215 -123q-11 -9 -25 -9q-1 0 -2 0.5l-1 0.5q-16 1 -27 12.5t-11 26.5q0 5 1 9v332q0 24 -7 35l-1 1
q-12 -16 -32 -16q-17 0 -28.5 11.5t-11.5 28.5q0 24 18 42t42 18h2q24 -1 45 -12t33 -30q20 -30 20 -78v-271l200 114v237v1q0 16 11.5 27.5t27.5 12.5z" />
    <glyph glyph-name="bobaimaithai" unicode="&#xe1a;" 
d="M439 501h1q17 0 28.5 -12t11.5 -28v-1v-280q0 -78 -60.5 -129t-139.5 -51h-160h-1q-16 0 -28 11.5t-12 28.5t12 28.5t28 11.5h1v300q0 24 -7 35l-1 1q-12 -16 -32 -16q-17 0 -28.5 11.5t-11.5 28.5q0 24 18 42t42 18h2q24 -1 45 -12t33 -30q20 -30 20 -78v-300h80
q49 0 84.5 28.5t35.5 71.5v280v1q0 16 11.5 27.5t27.5 12.5z" />
    <glyph glyph-name="poplathai" unicode="&#xe1b;" 
d="M439 701h1q17 0 28.5 -12t11.5 -28v-1v-480q0 -78 -60.5 -129t-139.5 -51h-160h-1q-16 0 -28 11.5t-12 28.5t12 28.5t28 11.5h1v300q0 24 -7 35l-1 1q-12 -16 -32 -16q-17 0 -28.5 11.5t-11.5 28.5q0 24 18 42t42 18h2q24 -1 45 -12t33 -30q20 -30 20 -78v-300h80
q49 0 84.5 28.5t35.5 71.5v480v1q0 16 11.5 27.5t27.5 12.5z" />
    <glyph glyph-name="phophungthai" unicode="&#xe1c;" 
d="M439 501h1q17 0 28.5 -12t11.5 -28v-1v-415v-6q0 -15 -10.5 -26.5t-26.5 -12.5q-1 -1 -3 -1q-10 0 -20.5 6.5t-15.5 15.5l-124 187l-124 -187q-5 -9 -15.5 -15.5t-20.5 -6.5q-2 0 -3 1v0h-1q-15 1 -25.5 12.5t-10.5 26.5v6v335q0 48 20 78q12 19 34 30.5t46 11.5h3
q22 -1 39 -18q18 -18 18 -42q0 -17 -11.5 -28.5t-28.5 -11.5q-20 0 -32 16l-1 -1q-7 -11 -7 -35v-208l83 125q5 10 15 16.5t20 6.5h1.5h0.5q11 0 21.5 -6.5t15.5 -16.5l83 -125v288v1q0 16 11.5 27.5t27.5 12.5z" />
    <glyph glyph-name="fofathai" unicode="&#xe1d;" 
d="M439 701h1q17 0 28.5 -12t11.5 -28v-1v-615v-6q0 -15 -10.5 -26.5t-26.5 -12.5q-1 -1 -3 -1q-10 0 -20.5 6.5t-15.5 15.5l-124 187l-124 -187q-5 -9 -15.5 -15.5t-20.5 -6.5q-2 0 -3 1v0h-1q-15 1 -25.5 12.5t-10.5 26.5v6v335q0 48 20 78q12 19 34 30.5t46 11.5h3
q22 -1 39 -18q18 -18 18 -42q0 -17 -11.5 -28.5t-28.5 -11.5q-20 0 -32 16l-1 -1q-7 -11 -7 -35v-208l83 125q5 10 15 16.5t20 6.5h1.5h0.5q11 0 21.5 -6.5t15.5 -16.5l83 -125v488v1q0 16 11.5 27.5t27.5 12.5z" />
    <glyph glyph-name="phophanthai" unicode="&#xe1e;" 
d="M439 501h1q17 0 28.5 -12t11.5 -28v-1v-417v-3q0 -14 -8 -25l-2 -2l-1 -1l-1.5 -1.5l-1.5 -1.5q-12 -10 -26 -10q-13 0 -24 9t-14 21l-102 261l-102 -262q-3 -12 -14.5 -20.5t-23.5 -8.5q-11 0 -21 7q-2 1 -3 2h-1l-2 2h-1l-2 2q0 1 -0.5 1.5t-0.5 1.5l-2 2q-7 10 -7 23
v3v337q0 24 -7 35l-1 1q-12 -16 -32 -16q-17 0 -28.5 11.5t-11.5 28.5q0 24 18 42t42 18h1h1q24 -1 45 -12t33 -30q20 -30 20 -78v-127l61 157q3 12 13.5 21t23.5 9l1 1v-1q1 1 1.5 1t0.5 -1h3v0q12 -1 22 -10t13 -20l61 -157v207v1q0 16 11.5 27.5t27.5 12.5z" />
    <glyph glyph-name="fofanthai" unicode="&#xe1f;" 
d="M439 701h1q17 0 28.5 -12t11.5 -28v-1v-617v-3q0 -14 -8 -25l-2 -2l-1 -1l-1.5 -1.5l-1.5 -1.5q-12 -10 -26 -10q-13 0 -24 9t-14 21l-102 261l-102 -262q-3 -12 -14.5 -20.5t-23.5 -8.5q-11 0 -21 7q-2 1 -3 2h-1l-2 2h-1l-2 2q0 1 -0.5 1.5t-0.5 1.5l-2 2q-7 10 -7 23
v3v337q0 24 -7 35l-1 1q-12 -16 -32 -16q-17 0 -28.5 11.5t-11.5 28.5q0 24 18 42t42 18h1h1q24 -1 45 -12t33 -30q20 -30 20 -78v-127l61 157q3 12 13.5 21t23.5 9l1 1v-1q1 1 1.5 1t0.5 -1h3v0q12 -1 22 -10t13 -20l61 -157v407v1q0 16 11.5 27.5t27.5 12.5z" />
    <glyph glyph-name="phosamphaothai" unicode="&#xe20;" 
d="M120 500h160q80 0 137 -43q63 -47 63 -117v-300v-1q0 -16 -11.5 -28t-28.5 -12t-28.5 12t-11.5 28v1v300q0 30 -31 53q-36 27 -89 27h-80v-300q0 -48 -20 -78q-12 -19 -34 -30.5t-46 -11.5h-3q-22 1 -39 18q-18 18 -18 42v1q0 16 11.5 27.5t27.5 12.5h1q20 0 32 -17l1 1
q7 11 7 35v300h-1q-16 0 -28 11.5t-12 28.5t12 28.5t28 11.5h1z" />
    <glyph glyph-name="momathai" unicode="&#xe21;" 
d="M439 501h1q17 0 28.5 -12t11.5 -28v-1v-412q1 -4 1 -8q0 -17 -11.5 -28.5t-27.5 -11.5q-1 -1 -2 -1q-14 0 -25 9l-215 123v-91v-1q0 -16 -11.5 -28t-28.5 -12t-28.5 12t-11.5 28v1v120h-1q-16 0 -28 11.5t-12 28.5t12 28.5t28 11.5h1v140q0 24 -7 35l-1 1
q-12 -16 -32 -16q-17 0 -28.5 11.5t-11.5 28.5q0 24 18 42t42 18h2q24 -1 45 -12t33 -30q20 -30 20 -78v-157l200 -114v351v1q0 16 11.5 27.5t27.5 12.5z" />
    <glyph glyph-name="yoyakthai" unicode="&#xe22;" 
d="M439 501h1q17 0 28.5 -12t11.5 -28v-1v-414q1 -3 1 -6q0 -16 -12 -28q0 -1 -1 -1q-12 -12 -28 -12q-3 0 -6 1h-219h-3q-56 1 -94 43t-38 97q0 54 34 102q5 7 11 14q-45 42 -45 104q0 55 38.5 97.5t96.5 42.5h10q15 0 28 -4q38 -10 60 -49q1 -2 1 -3q10 -20 4 -43
q-7 -24 -28 -36q-9 -5 -20 -5q-17 0 -28.5 11.5t-11.5 28.5q0 10 4 18q0 1 -3 2h-16q-22 0 -38.5 -19t-16.5 -41t16.5 -41t38.5 -19q29 0 52 8q7 2 14 2h1q16 0 27.5 -12t11.5 -28q0 -12 -8.5 -23t-19.5 -15q-37 -12 -78 -12q-18 0 -36 -24q-19 -28 -19 -56q0 -22 16.5 -41
t38.5 -19h185v380v1q0 16 11.5 27.5t27.5 12.5z" />
    <glyph glyph-name="roruathai" unicode="&#xe23;" 
d="M240 500q50 0 105 -12.5t93 -31.5q9 -5 16 -15.5t7 -20.5q0 -17 -12 -28.5t-28 -11.5q-10 0 -19 4q-24 13 -75 24.5t-87 11.5q-33 0 -58 -19q-22 -17 -22 -41q0 -5 5 -10q9 -9 29 -19q12 -5 28.5 -10.5t38.5 -12.5t32 -10q3 -1 29.5 -9t44.5 -15t36 -17
q32 -17 54.5 -47.5t22.5 -69.5q0 -40 -23.5 -70.5t-57.5 -45.5q-51 -24 -119 -24q-48 0 -78 20q-19 12 -30.5 34t-11.5 46v3q1 22 18 39q18 18 42 18q17 0 28.5 -11.5t11.5 -28.5q0 -20 -16 -32l1 -1q11 -7 35 -7q50 0 86 16q19 9 26.5 18t7.5 26t-7.5 26.5t-27.5 20.5
q-9 5 -22 10t-23 8.5t-27 8.5t-26 8q-7 2 -29 9t-41 13.5t-36 14.5q-34 15 -53 35q-28 29 -28 66q0 63 53 104q46 36 107 36z" />
    <glyph glyph-name="ruthai" unicode="&#xe24;" 
d="M100 500h180q80 0 137 -43q63 -47 63 -117v-500v-1q0 -16 -11.5 -28t-28.5 -12t-28.5 12t-11.5 28v1v500q0 30 -31 53q-36 27 -89 27h-120v-300q0 -24 7 -35l1 -1q11 16 31 17h1q17 0 28.5 -12t11.5 -28v-1q0 -24 -18 -42t-42 -18h-1h-1q-24 1 -45 12t-33 30
q-20 30 -20 78v305q-8 5 -14.5 15t-6.5 20q0 17 12 28.5t28 11.5h1z" />
    <glyph glyph-name="lolingthai" unicode="&#xe25;" 
d="M140 500h140q80 0 137 -43q63 -47 63 -117v-74q1 -3 1 -6t-1 -6v-214v-1q0 -16 -11.5 -28t-28.5 -12t-28.5 12t-11.5 28v1v180h-185q-22 0 -38.5 -19t-16.5 -41q0 -33 19 -58q16 -22 36 -22q24 0 35 7l1 1q-16 12 -16 32q0 17 11.5 28.5t28.5 11.5q24 0 42 -18t18 -42v-2
q-1 -24 -12 -45t-30 -33q-30 -20 -78 -20q-60 0 -100 54q-35 46 -35 106q0 55 38.5 97.5t96.5 42.5h185v40q0 30 -31 53q-36 27 -89 27h-140h-1q-16 0 -28 11.5t-12 28.5t12 28.5t28 11.5h1z" />
    <glyph glyph-name="luthai" unicode="&#xe26;" 
d="M120 500h160q80 0 137 -43q63 -47 63 -117v-500v-1q0 -16 -11.5 -28t-28.5 -12t-28.5 12t-11.5 28v1v500q0 30 -31 53q-36 27 -89 27h-80v-300q0 -48 -20 -78q-12 -19 -34 -30.5t-46 -11.5h-3q-22 1 -39 18q-18 18 -18 42v1q0 16 11.5 27.5t27.5 12.5h1q20 0 32 -17l1 1
q7 11 7 35v300h-1q-16 0 -28 11.5t-12 28.5t12 28.5t28 11.5h1z" />
    <glyph glyph-name="wowaenthai" unicode="&#xe27;" 
d="M120 500h160q80 0 137 -43q63 -47 63 -117v-160q0 -78 -60.5 -129t-139.5 -51q-48 0 -78 20q-19 12 -30.5 34t-11.5 46v3q1 22 18 39q18 18 42 18q17 0 28.5 -11.5t11.5 -28.5q0 -20 -16 -32l1 -1q11 -7 35 -7q49 0 84.5 28.5t35.5 71.5v160q0 30 -31 53q-36 27 -89 27
h-160h-1q-16 0 -28 11.5t-12 28.5t12 28.5t28 11.5h1z" />
    <glyph glyph-name="sosalathai" unicode="&#xe28;" 
d="M482 540q16 0 27 -12t11 -28q0 -18 -14 -30l-55 -49q29 -38 29 -81v-300v-1q0 -16 -11.5 -28t-28.5 -12t-28.5 12t-11.5 28v1v300q0 13 -10 28l-44 -38q-11 -11 -27 -11t-28 12t-12 28q0 19 15 31l27 24q-20 6 -41 6q-51 0 -89 -29q-31 -24 -31 -51v-97q2 1 3 2
q56 35 97 35h3q22 -1 39 -18q18 -18 18 -42q0 -17 -11.5 -28.5t-28.5 -11.5q-21 0 -33 17q-21 -7 -41 -20q-23 -14 -46 -34v-103v-1q0 -16 -11.5 -28t-28.5 -12t-28.5 12t-11.5 28v1v113q-1 3 -1 6.5t1 6.5v174q0 66 62 114q59 46 138 46q59 0 108 -27l66 57q11 10 26 10h2z
" />
    <glyph glyph-name="sorusithai" unicode="&#xe29;" 
d="M439 501h1q17 0 28.5 -12t11.5 -28v-1v-140h40h1q16 0 28 -11.5t12 -28.5t-12 -28.5t-28 -11.5h-1h-40v-60q0 -78 -60.5 -129t-139.5 -51h-160h-1q-16 0 -28 11.5t-12 28.5t12 28.5t28 11.5h1v300q0 24 -7 35l-1 1q-12 -16 -32 -16q-17 0 -28.5 11.5t-11.5 28.5
q0 24 18 42t42 18h2q24 -1 45 -12t33 -30q20 -30 20 -78v-300h80q49 0 84.5 28.5t35.5 71.5v60h-74q-3 -1 -6 -1q-17 0 -29 13q-12 12 -12 28q0 3 1 6v34v1q0 16 11.5 27.5t27.5 12.5h1q17 0 28.5 -12t11.5 -28v-1h40v140v1q0 16 11.5 27.5t27.5 12.5z" />
    <glyph glyph-name="sosuathai" unicode="&#xe2a;" 
d="M482 540q16 0 27 -12t11 -28q0 -18 -14 -30l-54 -48q28 -38 28 -82v-74q1 -3 1 -6t-1 -6v-214v-1q0 -16 -11.5 -28t-28.5 -12t-28.5 12t-11.5 28v1v180h-185q-22 0 -38.5 -19t-16.5 -41q0 -33 19 -58q16 -22 36 -22q24 0 35 7l1 1q-16 12 -16 32q0 17 11.5 28.5
t28.5 11.5q24 0 42 -18t18 -42v-2q-1 -24 -12 -45t-30 -33q-30 -20 -78 -20q-60 0 -100 54q-35 46 -35 106q0 55 38.5 97.5t96.5 42.5h185v40q0 15 -9 29l-45 -39q-11 -11 -27 -11t-28 12t-12 28q0 19 15 31l28 25q-21 5 -42 5h-140h-1q-16 0 -28 11.5t-12 28.5t12 28.5
t28 11.5h1h140q60 0 110 -26l64 56q11 10 26 10h2z" />
    <glyph glyph-name="hohipthai" unicode="&#xe2b;" 
d="M442 502q16 -1 27.5 -12.5t11.5 -28t-11.5 -28t-28.5 -11.5l-40 -1l-22 -33l99 -337q5 -16 -2.5 -30.5t-24 -19.5t-31 3.5t-18.5 24.5l-81 274l-121 -175v-88q0 -17 -11.5 -29t-28.5 -12t-28.5 12t-11.5 29v340q0 24 -7 35l-1 1q-7 -11 -19.5 -14.5t-25 0.5t-20 14.5
t-7.5 23.5q0 24 18 42t42 18h2q24 -1 45 -12t33 -30q20 -30 20 -78v-111l147 214q12 16 32 17l60 2h3z" />
    <glyph glyph-name="lochulathai" unicode="&#xe2c;" 
d="M439 560h1q17 0 28.5 -11.5t11.5 -28.5q0 -19 -14 -31l-68 -56q20 -14 36 -35q46 -59 46 -138v-216v-5q0 -16 -11.5 -28t-28.5 -12q-3 0 -7 1h-1t-2 1h-2t-1 1q-18 6 -24 23l-103 206l-102 -205q-7 -18 -25 -24q-1 -1 -2 -1t-2 -1h-1h-3v0v0q-3 -1 -5 -1q-17 0 -28.5 12
t-11.5 28v5v336q0 24 -7 35l-1 1q-12 -16 -32 -16q-17 0 -28.5 11.5t-11.5 28.5q0 24 18 42t42 18h2q24 -1 45 -12t33 -30q20 -30 20 -78v-171l62 124q3 11 13.5 19t22.5 8h0.5h1.5h1q12 0 23 -8t14 -19l62 -124v51q0 51 -29 89q-21 27 -46 31q-3 -1 -6 -1q-16 0 -28 12
t-12 28q0 10 4 18q5 11 15 17l116 97q11 9 25 9z" />
    <glyph glyph-name="oangthai" unicode="&#xe2d;" 
d="M140 500h140q80 0 137 -43q63 -47 63 -117v-180q0 -66 -62 -114q-59 -46 -138 -46t-138 46q-62 48 -62 114q0 58 18 92q12 21 34.5 34.5t47.5 13.5h3q22 -1 39 -18q18 -18 18 -42q0 -17 -11.5 -28.5t-28.5 -11.5q-19 0 -31 14v-1q-9 -15 -9 -53q0 -27 31 -51
q38 -29 89 -29t89 29q31 24 31 51v180q0 30 -31 53q-36 27 -89 27h-140h-1q-16 0 -28 11.5t-12 28.5t12 28.5t28 11.5h1z" />
    <glyph glyph-name="honokhukthai" unicode="&#xe2e;" 
d="M482 540q16 0 27 -12t11 -28q0 -18 -14 -30l-54 -48q28 -38 28 -82v-180q0 -66 -62 -114q-59 -46 -138 -46t-138 46q-62 48 -62 114q0 58 18 92q11 20 32 33.5t45 14.5h7q23 -1 40 -18q18 -18 18 -42q0 -17 -11.5 -28.5t-28.5 -11.5q-19 0 -31 15q-9 -17 -9 -55
q0 -27 31 -51q38 -29 89 -29t89 29q31 24 31 51v180q0 15 -9 29l-45 -39q-11 -11 -27 -11t-28 12t-12 28q0 19 15 31l28 25q-21 5 -42 5h-140h-1q-16 0 -28 11.5t-12 28.5t12 28.5t28 11.5h1h140q60 0 110 -26l64 56q11 10 26 10h2z" />
    <glyph glyph-name="paiyannoithai" unicode="&#xe2f;" 
d="M439 501h1q17 0 28.5 -12t11.5 -28v-1v-420v-1q0 -16 -11.5 -28t-28.5 -12t-28.5 12t-11.5 28v1v281q-55 -41 -120 -41q-92 0 -145 49l-2 2h-1v1l-1 1q-1 0 -1 1q-32 32 -43 59q-8 19 -2.5 47t24.5 45l2 2q17 14 41 13q25 -1 42 -19q10 -11 10 -27t-11 -27.5t-26 -12.5
q8 -12 21 -25t39 -21t53 -8q47 0 86 36q15 16 24.5 34t9.5 30v1q0 9 6 19.5t14 14.5l4 2q7 3 15 4z" />
    <glyph glyph-name="saraathai" unicode="&#xe30;" 
d="M159 421h1q17 0 28.5 -12t11.5 -28v-1v-20h200h1q16 0 28 -11.5t12 -28.5t-12 -28.5t-28 -11.5h-1h-234q-3 -1 -6 -1q-16 0 -28 12q-1 0 -1 1q-12 12 -12 28q0 3 1 6v54v1q0 16 11.5 27.5t27.5 12.5zM159 241h1q17 0 28.5 -12t11.5 -28v-1v-20h200h1q16 0 28 -11.5
t12 -28.5t-12 -28.5t-28 -11.5h-1h-234q-3 -1 -6 -1q-17 0 -29 13q-12 12 -12 28q0 3 1 6v54v1q0 16 11.5 27.5t27.5 12.5z" />
    <glyph glyph-name="maihanakatthai" unicode="&#xe31;" horiz-adv-x="0" 
d="M-401 681h1q17 0 28.5 -12t11.5 -28v-1v-20h200h1q16 0 28 -11.5t12 -28.5t-12 -28.5t-28 -11.5h-1h-234q-3 -1 -6 -1q-16 0 -28 12q-1 0 -1 1q-12 12 -12 28q0 3 1 6v54v1q0 16 11.5 27.5t27.5 12.5z" />
    <glyph glyph-name="saraaathai" unicode="&#xe32;" 
d="M120 500h160q80 0 137 -43q63 -47 63 -117v-300v-1q0 -16 -11.5 -28t-28.5 -12t-28.5 12t-11.5 28v1v300q0 30 -31 53q-36 27 -89 27h-160h-1q-16 0 -28 11.5t-12 28.5t12 28.5t28 11.5h1z" />
    <glyph glyph-name="saraamthai" unicode="&#xe33;" 
d="M80 680q33 0 56.5 -23.5t23.5 -56.5t-23.5 -56.5t-56.5 -23.5t-56.5 23.5t-23.5 56.5t23.5 56.5t56.5 23.5zM80 620q-9 0 -14.5 -5.5t-5.5 -14.5t5.5 -14.5t14.5 -5.5t14.5 5.5t5.5 14.5t-5.5 14.5t-14.5 5.5zM120 500h160q80 0 137 -43q63 -47 63 -117v-300v-1
q0 -16 -11.5 -28t-28.5 -12t-28.5 12t-11.5 28v1v300q0 30 -31 53q-36 27 -89 27h-160h-1q-16 0 -28 11.5t-12 28.5t12 28.5t28 11.5h1z" />
    <glyph glyph-name="saraithai" unicode="&#xe34;" horiz-adv-x="0" 
d="M-360 600h200h1q16 0 28 -11.5t12 -28.5t-12 -28.5t-28 -11.5h-1h-200h-1q-16 0 -28 11.5t-12 28.5t12 28.5t28 11.5h1z" />
    <glyph glyph-name="saraiithai" unicode="&#xe35;" horiz-adv-x="0" 
d="M-161 681h1q17 0 28.5 -12t11.5 -28v-1v-74q1 -3 1 -6q0 -16 -12 -28q0 -1 -1 -1q-12 -12 -28 -12q-3 0 -6 1h-194h-1q-16 0 -28 11.5t-12 28.5t12 28.5t28 11.5h1h160v40v1q0 16 11.5 27.5t27.5 12.5z" />
    <glyph glyph-name="sarauethai" unicode="&#xe36;" horiz-adv-x="0" 
d="M-180 680q25 0 42.5 -17.5t17.5 -42.5q0 -18 -10 -33q11 -11 11 -27q0 -17 -12 -28.5t-28 -11.5h-1h-200h-1q-16 0 -28 11.5t-12 28.5t12 28.5t28 11.5h1h123q-3 10 -3 20q0 25 17.5 42.5t42.5 17.5zM-180 640q-8 0 -14 -6t-6 -14t6 -14t14 -6t14 6t6 14t-6 14t-14 6z
" />
    <glyph glyph-name="saraueethai" unicode="&#xe37;" horiz-adv-x="0" 
d="M-230 680q12 0 21 -8.5t9 -21.5v-50h20v50q0 13 8.5 21.5t21.5 8.5q12 0 21 -8.5t9 -21.5v-84q1 -3 1 -6q0 -17 -12 -28.5t-28 -11.5h-1h-200h-1q-16 0 -28 11.5t-12 28.5t12 28.5t28 11.5h1h100v50q0 13 8.5 21.5t21.5 8.5z" />
    <glyph glyph-name="sarauthai" unicode="&#xe38;" horiz-adv-x="0" 
d="M-241 -39h1q17 0 28.5 -12t11.5 -28v-1v-80v-1q0 -16 -11.5 -28t-28.5 -12t-28.5 12t-11.5 28v1v60h-10q-13 0 -21.5 9t-8.5 21t8.5 21t21.5 9h40h3q3 0 6 1z" />
    <glyph glyph-name="sarauuthai" unicode="&#xe39;" horiz-adv-x="0" 
d="M-279 -40q10 0 20 -6.5t15 -15.5l4 -9l4 9q4 9 14 15.5t20 6.5q1 1 2 1q17 0 28.5 -12t11.5 -28q0 -10 -4 -19l-37 -74q-4 -11 -14.5 -19.5t-22.5 -9.5h-1h-1.5h-0.5q-12 1 -23 9t-15 20l-36 72h-15q-13 0 -21.5 9t-8.5 21t8.5 21t21.5 9h40h3q3 1 7 1z" />
    <glyph glyph-name="phinthuthai" unicode="&#xe3a;" horiz-adv-x="0" 
d="M-240 -40q33 0 56.5 -23.5t23.5 -56.5t-23.5 -56.5t-56.5 -23.5t-56.5 23.5t-23.5 56.5t23.5 56.5t56.5 23.5z" />
    <glyph glyph-name="bahtthai" unicode="&#xe3f;" 
d="M239 741h1q17 0 28.5 -12t11.5 -28v-1v-60q66 0 117 -40q28 -21 45.5 -55t17.5 -75q0 -79 -59 -128q36 -25 57.5 -65t21.5 -87q0 -82 -59 -136t-141 -54v-60v-1q0 -16 -11.5 -28t-28.5 -12t-28.5 12t-11.5 28v1v60h-74q-3 -1 -6 -1q-17 0 -29 13q-12 12 -12 28q0 3 1 6
v548q-1 3 -1 6q0 17 13 29q12 11 27 12h1q3 0 6 -1h74v60v1q0 16 11.5 27.5t27.5 12.5zM160 560v-180h120q38 0 68 23q32 25 32 67t-32 67q-30 23 -68 23h-120zM160 300v-220h120q55 0 87.5 29.5t32.5 80.5t-32.5 80.5t-87.5 29.5h-120z" />
    <glyph glyph-name="saraethai" unicode="&#xe40;" 
d="M199 501h1q17 0 28.5 -12t11.5 -28v-1v-380h80q24 0 35 7l1 1q-16 12 -16 32q0 17 11.5 28.5t28.5 11.5q24 0 42 -18t18 -42v-1v-1q-1 -24 -12 -45t-30 -33q-30 -20 -78 -20h-114q-3 -1 -6 -1q-16 0 -28 12q-1 0 -1 1q-12 12 -12 28q0 3 1 6v414v1q0 16 11.5 27.5
t27.5 12.5z" />
    <glyph glyph-name="saraaethai" unicode="&#xe41;" 
d="M119 501h1q17 0 28.5 -12t11.5 -28v-1v-380h80v380v1q0 16 11.5 27.5t27.5 12.5h1q17 0 28.5 -12t11.5 -28v-1v-380h40q24 0 35 7l1 1q-16 12 -16 32q0 17 11.5 28.5t28.5 11.5q24 0 42 -18t18 -42v-1v-1q-1 -24 -12 -45t-30 -33q-30 -20 -78 -20h-74q-3 -1 -6 -1t-6 1
h-148q-3 -1 -6 -1q-17 0 -29 13q-12 12 -12 28q0 3 1 6v414v1q0 16 11.5 27.5t27.5 12.5z" />
    <glyph glyph-name="saraothai" unicode="&#xe42;" 
d="M200 800q89 0 218 -64q9 -5 16 -15.5t7 -20.5q0 -17 -12 -28.5t-28 -11.5q-10 0 -19 4q-32 16 -92.5 36t-89.5 20q-33 0 -58 -19q-22 -17 -22 -41q0 -4 4 -8q9 -8 30 -17q10 -4 47 -16.5t57 -22.5q42 -21 56 -76q6 -25 6 -60v-380h40q24 0 35 7l1 1q-16 12 -16 32
q0 17 11.5 28.5t28.5 11.5q24 0 42 -18t18 -42v-1v-1q-1 -24 -12 -45t-30 -33q-30 -20 -78 -20h-74q-3 -1 -6 -1q-16 0 -28 12q-1 0 -1 1q-12 12 -12 28q0 3 1 6v414q0 25 -4 40q-5 20 -14 24q-11 6 -46 18t-53 19q-34 15 -53 33q-30 28 -30 66q0 63 53 104q46 36 107 36z
" />
    <glyph glyph-name="saraaimaimuanthai" unicode="&#xe43;" 
d="M240 800q89 0 144.5 -56t55.5 -124q0 -34 -28 -68q-14 -18 -46 -46q-29 -26 -37 -35q-5 -5 -7 -10q-2 -2 -2 -1v-380h40q24 0 35 7l1 1q-16 12 -16 32q0 17 11.5 28.5t28.5 11.5q24 0 42 -18t18 -42v-1v-1q-1 -24 -12 -45t-30 -33q-30 -20 -78 -20h-74q-3 -1 -6 -1
q-16 0 -28 12q-1 0 -1 1q-12 12 -12 28q0 3 1 6v414q0 32 29 64q12 13 45 42q26 24 36 36t10 18q0 33 -31.5 66.5t-88.5 33.5q-56 0 -91 -35q-14 -13 -21.5 -29.5t-7.5 -25.5q0 -11 7 -18t18 -7t18 7t7 18v1q0 16 11.5 28t28.5 12t28.5 -12t11.5 -28v-1q0 -43 -31 -74
t-74 -31t-74 31t-31 74v1v2q1 59 53 109q59 58 147 58z" />
    <glyph glyph-name="saraaimaimalaithai" unicode="&#xe44;" 
d="M401 800q14 0 24 -8l3 -3h1q1 -1 2 -3l2 -2t1 -2v-1h1q1 -2 1 -3q4 -9 4 -18q0 -13 -8 -24q-55 -92 -83.5 -156t-28.5 -120v-380h40q24 0 35 7l1 1q-16 12 -16 32q0 17 11.5 28.5t28.5 11.5q24 0 42 -18t18 -42v-1v-1q-1 -24 -12 -45t-30 -33q-30 -20 -78 -20h-74
q-3 -1 -6 -1q-17 0 -29 13q-12 12 -12 28q0 3 1 6v414q0 98 71 227q-121 -22 -248 37q-10 4 -16.5 14.5t-6.5 21.5q0 17 11.5 28.5t28.5 11.5q9 0 17 -4q150 -69 281 -2q10 6 22 6h1z" />
    <glyph glyph-name="lakkhangyaothai" unicode="&#xe45;" 
d="M120 500h160q80 0 137 -43q63 -47 63 -117v-500v-1q0 -16 -11.5 -28t-28.5 -12t-28.5 12t-11.5 28v1v500q0 30 -31 53q-36 27 -89 27h-160h-1q-16 0 -28 11.5t-12 28.5t12 28.5t28 11.5h1z" />
    <glyph glyph-name="maiyamokthai" unicode="&#xe46;" 
d="M119 501h1q15 0 26 -10l134 -84l134 84q11 9 25 10h1q10 0 19 -5l1 -1q1 0 2 -1q8 -5 13 -15t5 -19v-6v-454q0 -83 -58.5 -141.5t-141.5 -58.5h-80h-1q-16 0 -28 11.5t-12 28.5t12 28.5t28 11.5h1h80q52 0 86 34t34 86v388l-90 -56q-12 -13 -29 -13h-1h-1q-17 0 -29 13
l-90 56v-88q0 -24 7 -35l1 -1q11 16 31 17h1q17 0 28.5 -12t11.5 -28v-1q0 -24 -18 -42t-42 -18h-1h-1q-24 1 -45 12t-33 30q-20 30 -20 78v155v5q0 21 17 33l1 1q1 0 2 1q9 5 19 6z" />
    <glyph glyph-name="maitaikhuthai" unicode="&#xe47;" horiz-adv-x="0" 
d="M-381 781q4 0 7 -1h234q13 0 21.5 -8.5t8.5 -21.5t-8.5 -21.5t-21.5 -8.5h-200v-93l32 17q7 6 16 6h4q9 0 17 -6l31 -17v13q0 17 11.5 28.5t27.5 12.5q17 0 29 -12t12 -29v-60q0 -12 -6.5 -22.5t-18.5 -15.5q-15 -6 -23 -1.5t-36.5 20.5t-45.5 25q-17 -9 -46 -25.5
t-36 -20.5q-12 -2 -23.5 2.5t-18 15t-6.5 22.5v160q0 17 11.5 28.5t27.5 12.5z" />
    <glyph glyph-name="maiekthai" unicode="&#xe48;" horiz-adv-x="0" 
d="M-260 800q12 0 21 -8.5t9 -21.5v-40q0 -13 -9 -21.5t-21 -8.5t-21 8.5t-9 21.5v40q0 13 8.5 21.5t21.5 8.5z" />
    <glyph glyph-name="maithothai" unicode="&#xe49;" horiz-adv-x="0" 
d="M-330 800q12 0 21 -8q0 -1 1 -1q8 -9 8 -21v-5v-6q28 0 42 2q30 4 42 24q9 15 26 15h1q12 0 20.5 -9t8.5 -21q0 -8 -4 -15q-27 -45 -85 -53q-18 -3 -76 -2h-5q-13 0 -22 9q-8 9 -8 21v5v5h-10q-13 0 -21.5 9t-8.5 21t8.5 21t21.5 9h35h5z" />
    <glyph glyph-name="maitrithai" unicode="&#xe4a;" horiz-adv-x="0" 
d="M-370 800q9 1 17 -5l23 -11l23 11q7 5 16.5 5.5t17.5 -5.5v0q1 0 2 -1q14 -11 11 -28v-4q26 4 40 19q13 14 16 16q6 3 11.5 3.5t9.5 -0.5q9 -3 15 -9t8 -15v-1q1 -5 -1 -12q-1 -5 -5 -11q-7 -10 -17 -18q-21 -20 -47 -28q-22 -6 -55 -6h-5h-3q-11 1 -19 9q-4 4 -7 16
q-3 -3 -8 -5q-3 -1 -5 0q-6 2 -9 5q-3 -14 -12 -20q-10 -7 -21 -5.5t-18.5 10.5t-7.5 20v35q-1 9 2 17t11 13q1 1 2 1q7 4 15 4z" />
    <glyph glyph-name="maichattawathai" unicode="&#xe4b;" horiz-adv-x="0" 
d="M-260 800q12 0 21 -8.5t9 -21.5h10q9 0 14.5 -6t5.5 -14t-5.5 -14t-14.5 -6h-10q0 -13 -9 -21.5t-21 -8.5t-21 8.5t-9 21.5h-10q-9 0 -14.5 6t-5.5 14t5.5 14t14.5 6h10q0 13 8.5 21.5t21.5 8.5z" />
    <glyph glyph-name="thanthakhatthai" unicode="&#xe4c;" horiz-adv-x="0" 
d="M-230 800h40q13 0 21.5 -9t8.5 -21t-8.5 -21t-21.5 -9h-40q-15 0 -19 -4q-1 -1 -1 -6q0 -13 -9 -21.5t-21 -8.5t-21 8.5t-9 21.5q0 30 19 49q21 21 61 21z" />
    <glyph glyph-name="nikhahitthai" unicode="&#xe4d;" horiz-adv-x="0" 
d="M-240 780q49 0 84.5 -35.5t35.5 -84.5t-35.5 -84.5t-84.5 -35.5t-84.5 35.5t-35.5 84.5t35.5 84.5t84.5 35.5zM-240 700q-17 0 -28.5 -11.5t-11.5 -28.5t11.5 -28.5t28.5 -11.5t28.5 11.5t11.5 28.5t-11.5 28.5t-28.5 11.5z" />
    <glyph glyph-name="yamakkanthai" unicode="&#xe4e;" horiz-adv-x="0" 
d="M-200 800h12q12 -1 20.5 -10t7.5 -21.5t-10 -21t-22 -7.5l-29 -1q-13 -1 -20 -4q-2 -1 -2 -3q1 -9 6 -20q5 -14 13 -26v-1l1 -1q4 -8 3.5 -17t-6.5 -16.5t-15 -10t-18 0.5h-19q-17 0 -22 -3q-4 -4 -7 -17q-1 -10 2 -14q4 -6 6 -8q12 3 22.5 -2t15 -16t0 -22t-15.5 -16
l-4 -1q-4 -2 -11 -3t-15 0q-28 5 -48 34q-16 24 -11 58q5 31 25 50q17 18 44 20q-4 12 -6 22q-3 25 7.5 42.5t33.5 25.5q14 5 34 8q13 1 28 1z" />
    <glyph glyph-name="fongmanthai" unicode="&#xe4f;" 
d="M280 440q78 0 134 -56t56 -134t-56 -134t-134 -56t-134 56t-56 134t56 134t134 56zM280 360q-46 0 -78 -32t-32 -78t32 -78t78 -32t78 32t32 78t-32 78t-78 32zM280 340q37 0 63.5 -26.5t26.5 -63.5t-26.5 -63.5t-63.5 -26.5t-63.5 26.5t-26.5 63.5t26.5 63.5t63.5 26.5z
" />
    <glyph glyph-name="zerothai" unicode="&#xe50;" 
d="M280 400q82 0 141 -56.5t59 -143.5t-59 -143.5t-141 -56.5t-141 56.5t-59 143.5t59 143.5t141 56.5zM280 320q-55 0 -87.5 -30.5t-32.5 -89.5t32.5 -89.5t87.5 -30.5t87.5 30.5t32.5 89.5t-32.5 89.5t-87.5 30.5z" />
    <glyph glyph-name="onethai" unicode="&#xe51;" 
d="M280 400q82 0 141 -56.5t59 -143.5q0 -79 -58.5 -139.5t-141.5 -60.5q-12 0 -23 0.5t-20.5 1.5t-17 1.5t-16 2.5t-13.5 3t-13 3.5t-10.5 3t-10 3.5t-9.5 3q-11 4 -19.5 15t-8.5 23q0 17 12 28.5t28 11.5q7 0 14 -2q2 -1 16 -6t17.5 -5.5t15.5 -3t25.5 -3t32.5 -0.5
q47 0 83.5 38.5t36.5 81.5q0 59 -32.5 89.5t-87.5 30.5q-51 0 -89 -29q-31 -24 -31 -51q0 -24 7 -35l1 -1q11 16 31 17h1q17 0 28.5 -12t11.5 -28v-1q0 -24 -18 -42t-42 -18h-1h-1q-24 1 -45 12t-33 30q-20 30 -20 78q0 66 62 114q59 46 138 46z" />
    <glyph glyph-name="twothai" unicode="&#xe52;" 
d="M60 500q47 0 73.5 -26.5t26.5 -73.5v-220q0 -43 35.5 -71.5t84.5 -28.5h120v209l-34 -20q-11 -9 -26 -9q-12 0 -22 7q-1 0 -1 1h-1l-52 39q-4 -14 -4 -27q0 -24 7 -35l1 -1q11 16 31 17h1q17 0 28.5 -12t11.5 -28v-1q0 -24 -18 -42t-42 -18h-1h-1q-24 1 -45 12t-33 30
q-20 30 -20 78q0 39 17 73q9 18 21 29q14 13 31 17q4 1 9 1h1q8 0 15 -3q8 -2 14 -8l54 -41l73 43q10 9 24 10h1q9 0 17 -4q1 -1 3 -2q1 0 2 -1v0q8 -5 13 -15t5 -19v-6v-308q1 -3 1 -6q0 -16 -12 -28q0 -1 -1 -1q-12 -12 -28 -12q-3 0 -6 1h-154q-79 0 -139.5 51t-60.5 129
v220q0 13 -3.5 16.5t-16.5 3.5h-1q-16 0 -28 11.5t-12 28.5t12 28.5t28 11.5h1z" />
    <glyph glyph-name="threethai" unicode="&#xe53;" 
d="M119 401h1q9 0 19 -6t15 -13l126 -158l126 157q5 8 14.5 13.5t18.5 6.5h1q7 0 13 -3q11 -3 19 -14.5t8 -23.5v-5v-315v-1q0 -16 -11.5 -28t-28.5 -12t-28.5 12t-11.5 28v1v206l-89 -111l-2 -2q0 -1 -1 -1.5t-1.5 -1l-1.5 -1.5t-2 -1q0 -1 -1 -1l-2 -2h-1q-1 -1 -2 -1.5
t-2 -0.5q-1 -1 -2 -1h-2q-1 -1 -2 -1h-2q-1 -1 -2 -1h-2h-2h-1h-1.5h-0.5h-3t-2 0.5t-2 0.5h-2q-1 1 -2 1t-2 1h-1q-1 1 -2 1q-1 1 -2 1.5l-1 0.5l-2 2q-1 0 -2 1q-1 0 -1.5 1t-1.5 1.5t-1 1.5q-1 0 -1.5 1l-0.5 1l-89 111v-126q0 -29 26 -38q12 18 33 19h1q17 0 28.5 -12
t11.5 -28v-1q0 -24 -18 -42t-42 -18h-2q-49 1 -83.5 36t-34.5 84v235v5q0 11 7 22t17 15q1 1 2 1t2 1h1z" />
    <glyph glyph-name="fourthai" unicode="&#xe54;" 
d="M480 500h1q16 0 28 -11.5t12 -28.5t-12 -28.5t-28 -11.5h-1q-18 0 -26 -6t-18 -24q-6 -10 -17.5 -38.5t-20.5 -45.5q-4 -10 -13 -17q-11 -10 -26 -10q-5 0 -10 2q-8 0 -15.5 2t-15.5 4.5t-12.5 4.5l-13.5 6t-11 5q-38 17 -61 17q-41 0 -70.5 -34t-29.5 -106q0 -56 19 -78
t41 -22h77q-19 41 -10 79q8 36 33.5 58.5t59.5 22.5h3q22 -1 39 -18q18 -18 18 -42q0 -17 -11.5 -28.5t-28.5 -11.5t-29 12q-5 -5 -6 -11q-7 -28 30 -61h65h1q16 0 28 -11.5t12 -28.5t-12 -28.5t-28 -11.5h-1h-79h-161h-1h-2q-54 1 -95.5 50t-41.5 130q0 98 53.5 159
t126.5 61q39 0 93 -23q14 -7 25 -11q18 45 29 64q16 29 45.5 49.5t67.5 20.5z" />
    <glyph glyph-name="fivethai" unicode="&#xe55;" 
d="M480 500q17 0 29 -11.5t12 -28.5t-12 -28.5t-29 -11.5q-18 0 -26 -6t-18 -24q-6 -10 -17.5 -38.5t-20.5 -45.5q-4 -10 -13 -17q-16 -14 -36 -8q-8 0 -15.5 2t-15.5 4.5t-12.5 4.5l-13.5 6t-11 5q-38 17 -61 17q-41 0 -70.5 -34t-29.5 -106q0 -56 19 -78t41 -22h77
q-19 41 -10 79q8 36 33.5 58.5t59.5 22.5h3q22 -1 39 -18q18 -18 18 -42q0 -12 -7 -22.5t-18 -15t-23.5 -2t-20.5 11.5q-5 -5 -6 -11q-7 -28 30 -61h65q17 0 29 -11.5t12 -28.5t-12 -28.5t-29 -11.5h-240h-3q-54 1 -95.5 50t-41.5 130q0 98 53.5 159t126.5 61h4q-4 10 -4 20
q0 24 18 42t42 18t42 -18t18 -42q0 -28 -22 -46q11 -4 20 -8q18 45 29 64q16 29 45.5 49.5t67.5 20.5zM280 430q-4 0 -7 -3t-3 -7t3 -7t7 -3t7 3t3 7t-3 7t-7 3z" />
    <glyph glyph-name="sixthai" unicode="&#xe56;" 
d="M80 500q47 0 73.5 -26.5t26.5 -73.5v-28q72 28 140 28q82 0 141 -56.5t59 -143.5q0 -45 -20.5 -83.5t-53.5 -65.5q-65 -51 -146 -51q-48 0 -78 20q-19 12 -30.5 34t-11.5 46v3q1 22 18 39q18 18 42 18q17 0 28.5 -11.5t11.5 -28.5q0 -20 -16 -32l1 -1q11 -7 35 -7
q54 0 96 34q44 35 44 86q0 59 -32.5 89.5t-87.5 30.5q-68 0 -139 -34q-4 -3 -9 -4q-6 -2 -13 -2q-5 0 -9 1q-18 3 -32 17q-18 18 -18 42v60q0 13 -3.5 16.5t-16.5 3.5h-1q-16 0 -28 11.5t-12 28.5t12 28.5t28 11.5h1z" />
    <glyph glyph-name="seventhai" unicode="&#xe57;" 
d="M479 501h1q17 0 28.5 -12t11.5 -28v-1q0 -129 -18 -232q-16 -93 -46 -147q-41 -75 -108 -81q-4 -1 -8 -1q-17 0 -29 13q-12 12 -12 28q0 3 1 6v170l-46 -77q0 -1 -1 -2l-1 -1q-1 -1 -1.5 -2t-1.5 -1.5t-1 -1.5q-1 0 -2 -1l-2 -2h-1l-2 -2l-1 -1q-1 0 -3 -1h-1
q-1 -1 -2 -1l-1 -1q-2 0 -3 -1h-1h-3q0 -1 -1 -1h-3h-1h-1h-1.5h-1.5h-3q0 1 -1 1h-3l-1 1h-2q-1 1 -2 1t-2 1h-1q-2 1 -3 2h-1l-2 2q-1 0 -1 1l-2 2h-1q-1 2 -2 3h-1q0 1 -1 2l-1 1l-67 96v-113q0 -29 26 -38q12 18 33 19h1q17 0 28.5 -12t11.5 -28v-1q0 -24 -18 -42
t-42 -18h-2q-49 1 -83.5 36t-34.5 84v236v4q0 13 8 24t20 15h3l8 2h1q10 0 20.5 -6.5t14.5 -15.5l102 -146l87 144q4 10 14.5 16.5t20.5 7.5h1q4 0 9 -1q0 -1 1 -1t2 -0.5t3 -0.5q10 -5 17.5 -15.5t7.5 -22.5v-4v-247q3 4 6 10q23 43 37 123q17 97 17 218v1q0 16 11.5 27.5
t27.5 12.5z" />
    <glyph glyph-name="eightthai" unicode="&#xe58;" 
d="M480 500h1q16 0 28 -11.5t12 -28.5t-12 -28.5t-28 -11.5h-1q-18 0 -26 -6t-18 -24q-6 -10 -17.5 -38.5t-20.5 -45.5q-4 -10 -13 -17q-11 -10 -26 -10q-5 0 -10 2q-8 0 -15.5 2t-15.5 4.5t-12.5 4.5l-13.5 6t-11 5q-38 17 -61 17q-33 0 -66.5 -41.5t-33.5 -98.5
q0 -43 25 -75q8 -10 17 -17l40 67q4 9 12.5 16t18.5 9h7h1q16 0 27 -11l103 -73q12 23 12 46q-7 -2 -15 -2q-16 0 -28 11.5t-12 28.5q0 24 18 42t42 18h3q18 -1 33.5 -11.5t24.5 -25.5q14 -25 14 -61q0 -76 -55 -130q-12 -13 -29 -13t-29 13l-98 70l-34 -57v0
q-4 -10 -14 -17t-20 -8h-2h-2h-1q-54 0 -97 55q-42 54 -42 125q0 90 52.5 155t127.5 65q39 0 93 -23q14 -7 25 -11q18 45 29 64q16 29 45.5 49.5t67.5 20.5z" />
    <glyph glyph-name="ninethai" unicode="&#xe59;" 
d="M480 500h1q16 0 28 -11.5t12 -28.5t-12 -28.5t-28 -11.5h-1q-18 0 -26 -6t-18 -24q-5 -10 -15.5 -34.5t-15.5 -35.5q9 -14 13 -19q1 -1 3 -2v0q12 -4 21 -15t9 -24q0 -17 -12 -28.5t-28 -11.5h-1q-14 0 -25.5 5.5t-16 10.5t-12 14.5t-26.5 37.5q-13 21 -21 29l-1 1
q-2 -5 -4 -11q1 -3 4 -5q28 -34 63 -104q38 -77 48 -93q11 -16 19 -23q2 -1 3 -2h1q16 0 28 -11.5t12 -28.5t-12 -28.5t-28 -11.5h-2q-29 0 -54 22q-17 14 -34 40q-12 19 -53 100q-31 62 -53 89q-24 29 -46 29q-29 0 -54.5 -31t-25.5 -89q0 -41 20 -60.5t40 -19.5
q15 0 23 10q4 5 3 9q-2 2 -3 4q-9 5 -16 15.5t-7 21.5q0 17 11.5 28.5t28.5 11.5q24 0 42 -18q14 -14 17 -32q9 -24 5 -48t-19 -42q-32 -40 -85 -40q-54 0 -97 44.5t-43 115.5q0 86 47 143t113 57q18 0 36 -6q4 8 10 15q10 14 28 22.5t36 8.5q20 0 37 -11q10 24 20 41
q16 29 45.5 49.5t67.5 20.5zM309 320h1h-1v0z" />
    <glyph glyph-name="angkhankhuthai" unicode="&#xe5a;" 
d="M359 501h1q17 0 28.5 -12t11.5 -28v-1v-420v-1q0 -16 -11.5 -28t-28.5 -12t-28.5 12t-11.5 28v1v293q-49 -33 -100 -33q-78 0 -121 26q-34 20 -50 62q-10 19 -5.5 48.5t25.5 48.5l2 2q17 14 41 13q25 -1 42 -19q10 -11 10 -27q0 -17 -11.5 -28.5t-27.5 -11.5
q7 -15 16 -20q23 -14 79 -14q13 0 32.5 8t34.5 20q15 13 24 27.5t9 24.5v1q0 9 6 19.5t14 14.5l4 2q7 3 15 4zM479 501h1q17 0 28.5 -12t11.5 -28v-1v-420v-1q0 -16 -11.5 -28t-28.5 -12t-28.5 12t-11.5 28v1v420v1q0 16 11.5 27.5t27.5 12.5z" />
    <glyph glyph-name="khomutthai" unicode="&#xe5b;" 
d="M100 420q23 0 42.5 -11t30.5 -27q8 -11 13 -25q4 -12 4 -22v-1q0 -16 -11.5 -28t-28.5 -12t-28.5 12t-11.5 28v1v-4q-1 3 -3 5q-2 3 -2 4q-5 -6 -10 -16q-15 -31 -15 -74q0 -45 19 -82q7 -13 14 -18q10 2 15 9q4 5 13 30q5 13 15.5 41.5t15.5 41.5q18 47 32 67
q9 16 26 20v0h1q1 1 3 1q3 1 6 1q16 0 27.5 -11t12.5 -26l11 -42l11 21q3 11 13.5 19t22.5 8h1h1q12 0 23 -7.5t15 -17.5l21 -39l9 8q7 9 17 13q7 3 14 3h1h6h74h1q16 0 28 -11.5t12 -28.5t-12 -28.5t-28 -11.5h-1h-63l-39 -38q-12 -13 -29 -13q-12 0 -23 8.5t-15 19.5
l-9 17l-26 -52h-1q-4 -10 -14.5 -16.5t-20.5 -6.5q-15 0 -26.5 10.5t-13.5 25.5l-9 35q-10 -25 -15 -40q-14 -34 -23 -48q-23 -31 -63 -41q-34 -8 -65 15q-21 15 -36 45q-29 54 -29 119q0 61 23 108q11 25 27 40q23 22 50 22zM110 331z" />
    <glyph glyph-name="quoteleft" unicode="&#x2018;" 
d="M240 681q13 -1 24 -9.5t14 -20.5l40 -140q2 -5 2 -11q0 -17 -11.5 -28.5t-28.5 -11.5q-12 0 -23.5 8.5t-14.5 20.5l-40 140q-2 6 -2 12q0 16 11.5 28t28.5 12z" />
    <glyph glyph-name="quoteright" unicode="&#x2019;" 
d="M319 681h1q17 0 28.5 -12t11.5 -28q0 -6 -2 -12l-40 -140q-3 -12 -14.5 -20.5t-23.5 -8.5q-17 0 -28.5 11.5t-11.5 28.5q0 6 2 11l40 140q3 12 13.5 20.5t23.5 9.5z" />
    <glyph glyph-name="quotedblleft" unicode="&#x201c;" 
d="M200 681q13 -1 24 -9.5t14 -20.5l40 -140q2 -5 2 -11q0 -17 -11.5 -28.5t-28.5 -11.5q-12 0 -23.5 8.5t-14.5 20.5l-40 140q-2 6 -2 12q0 16 11.5 28t28.5 12zM300 681q13 -1 24 -9.5t14 -20.5l40 -140q2 -5 2 -11q0 -17 -11.5 -28.5t-28.5 -11.5q-12 0 -23.5 8.5
t-14.5 20.5l-40 140q-2 6 -2 12q0 16 11.5 28t28.5 12z" />
    <glyph glyph-name="quotedblright" unicode="&#x201d;" 
d="M259 681h1q17 0 28.5 -12t11.5 -28q0 -6 -2 -12l-40 -140q-3 -12 -14.5 -20.5t-23.5 -8.5q-17 0 -28.5 11.5t-11.5 28.5q0 6 2 11l40 140q3 12 13.5 20.5t23.5 9.5zM359 681h1q17 0 28.5 -12t11.5 -28q0 -6 -2 -12l-40 -140q-3 -12 -14.5 -20.5t-23.5 -8.5
q-17 0 -28.5 11.5t-11.5 28.5q0 6 2 11l40 140q3 12 13.5 20.5t23.5 9.5z" />
    <glyph glyph-name="blank" unicode="&#x2423;" 
d="M77 182v-99q0 -17 5 -28t14 -15t14.5 -5t14.5 -1h293q58 0 58 53v95h27v-182h-453v182h27z" />
    <glyph glyph-name="dottedcircle" unicode="&#x25cc;" 
d="M57 334.5q5 -1.5 9 -7t4 -12.5t-4 -12t-9 -5t-9 5.5t-4 13.5q0 6 4 12.5t9 5zM130 383q14 0 14 -11q0 -7 -4.5 -15t-10 -8t-9.5 8t-4 15q0 5 4 8t10 3zM123 64q5 0 9 -5.5t4 -12.5t-4 -11.5t-9 -4.5q-6 0 -10 4.5t-4 11.5t4.5 12.5t9.5 5.5zM52 129q12 0 12 -17t-12 -17
q-6 0 -10 4t-4 11t4 13t10 6zM322 72q6 0 9.5 -5t3.5 -13q0 -5 -4 -10.5t-9.5 -5.5t-9 5.5t-3.5 10.5q0 8 3.5 13t9.5 5zM381 137q13 0 13 -14q0 -20 -13 -20t-13 20q0 14 13 14zM381 329q13 0 13 -17t-13 -17t-13 17t13 17zM313 392q6 0 10.5 -9t4.5 -20q0 -2 -4.5 -3.5
t-10.5 -1.5q-5 0 -9 -2.5t-4 7t4 19.5t9 10zM406 231q6 0 10.5 -5.5t4.5 -12t-4.5 -11t-10.5 -4.5q-5 0 -9 4.5t-4 11t4 12t9 5.5zM26 236q12 0 12 -18q0 -6 -3.5 -11t-8.5 -5q-14 0 -14 16q0 18 14 18zM230 37q6 0 9.5 -5t3.5 -12.5t-3.5 -12t-9.5 -4.5t-9.5 5t-3.5 12
t3.5 12t9.5 5zM229 416q5 0 9 -5.5t4 -12.5q0 -16 -13 -16q-5 0 -9.5 5t-4.5 11.5t4.5 12t9.5 5.5z" />
    <glyph glyph-name="uni0E10.descless" unicode="&#xf700;" 
d="M141 501h120h220q17 0 28.5 -12t11.5 -28.5t-11.5 -28t-28.5 -11.5h-55q32 -44 34 -94q1 -3 1 -6q0 -5 -1 -10q-2 -6 -6 -12l-18 -36l-40 -80l-80 -160q-4 -10 -14.5 -16.5t-21.5 -6.5q-16 0 -28 11.5t-12 28.5q0 10 5 18l57 114q-7 24 -19 37q-5 6 -9 9q-12 -18 -33 -18
q-17 0 -28.5 12t-11.5 28v1q0 24 17.5 42t42.5 18h2q47 -1 80 -39q2 -1 2 -2l20 38l15 31q-5 31 -37.5 61.5t-81.5 30.5h-120h-1q-17 0 -28.5 11.5t-11.5 28t11.5 28.5t28.5 12h1z" />
    <glyph glyph-name="uni0E34.left" unicode="&#xf701;" horiz-adv-x="0" 
d="M-422 600h200h1q16 0 28 -11.5t12 -28.5t-12 -28.5t-28 -11.5h-1h-200h-1q-16 0 -28 11.5t-12 28.5t12 28.5t28 11.5h1z" />
    <glyph glyph-name="uni0E35.left" unicode="&#xf702;" horiz-adv-x="0" 
d="M-223 681h1q17 0 28.5 -12t11.5 -28v-1v-74q1 -3 1 -6q0 -16 -12 -28q0 -1 -1 -1q-12 -12 -28 -12q-3 0 -6 1h-194h-1q-16 0 -28 11.5t-12 28.5t12 28.5t28 11.5h1h160v40v1q0 16 11.5 27.5t27.5 12.5z" />
    <glyph glyph-name="uni0E36.left" unicode="&#xf703;" horiz-adv-x="0" 
d="M-242 680q25 0 42.5 -17.5t17.5 -42.5q0 -18 -10 -33q11 -11 11 -27q0 -17 -12 -28.5t-28 -11.5h-1h-200h-1q-16 0 -28 11.5t-12 28.5t12 28.5t28 11.5h1h123q-3 10 -3 20q0 25 17.5 42.5t42.5 17.5zM-242 640q-8 0 -14 -6t-6 -14t6 -14t14 -6t14 6t6 14t-6 14t-14 6z
" />
    <glyph glyph-name="uni0E37.left" unicode="&#xf704;" horiz-adv-x="0" 
d="M-292 680q12 0 21 -8.5t9 -21.5v-50h20v50q0 13 8.5 21.5t21.5 8.5q12 0 21 -8.5t9 -21.5v-84q1 -3 1 -6q0 -17 -12 -28.5t-28 -11.5h-1h-200h-1q-16 0 -28 11.5t-12 28.5t12 28.5t28 11.5h1h100v50q0 13 8.5 21.5t21.5 8.5z" />
    <glyph glyph-name="uni0E48.low_left" unicode="&#xf705;" horiz-adv-x="0" 
d="M-329 781h1q17 0 28.5 -12t11.5 -28v-1v-160v-1q0 -16 -11.5 -28t-28.5 -12t-28.5 12t-11.5 28v1v160v1q0 16 11.5 27.5t27.5 12.5z" />
    <glyph glyph-name="uni0E49.low_left" unicode="&#xf706;" horiz-adv-x="0" 
d="M-419 720h1q16 0 28 -12q1 0 1 -1q12 -12 12 -28q0 -3 -1 -6v-51q73 13 104 75q4 9 14 15.5t20 6.5q1 1 2 1q17 0 28.5 -12t11.5 -28q0 -10 -4 -19q-17 -33 -42.5 -57.5t-54.5 -38t-56.5 -19.5t-55.5 -7q-4 -1 -7 -1q-16 0 -28 12q-1 0 -1 1q-12 12 -12 28q0 3 1 6v54
h-20h-1q-16 0 -28 11.5t-12 28.5t12 28.5t28 11.5h1h54q2 0 5 1z" />
    <glyph glyph-name="uni0E4A.low_left" unicode="&#xf707;" horiz-adv-x="0" 
d="M-484 721q12 -1 39 -17.5t32 -18.5q6 3 22.5 13.5t27.5 16t19 6.5q17 0 29 -12t12 -29v-54q1 0 2 1q6 3 9 6.5t6 15.5t3 31q0 17 11.5 28.5t27.5 12.5q17 0 29 -12t12 -29q0 -43 -15.5 -74.5t-41.5 -47.5q-31 -18 -77 -18q-20 -3 -34 11q-1 0 -1 1q-14 14 -11 34v47
q-22 -13 -30 -13t-30 13v-53q0 -17 -11.5 -29t-28.5 -12t-28.5 12t-11.5 29v100q0 17 11 28q13 13 28 13z" />
    <glyph glyph-name="uni0E4B.low_left" unicode="&#xf708;" horiz-adv-x="0" 
d="M-353 737h1q17 0 28.5 -12t11.5 -28v-1v-40h40h1q16 0 28 -11.5t12 -28.5t-12 -28.5t-28 -11.5h-1h-40v-40v-1q0 -16 -11.5 -28t-28.5 -12t-28.5 12t-11.5 28v1v40h-40h-1q-16 0 -28 11.5t-12 28.5t12 28.5t28 11.5h1h40v40v1q0 16 11.5 27.5t27.5 12.5z" />
    <glyph glyph-name="uni0E4C.low_left" unicode="&#xf709;" horiz-adv-x="0" 
d="M-199 800q17 0 28.5 -11.5t11.5 -28.5q0 -11 -7.5 -22t-17.5 -15q-23 -9 -44.5 -35.5t-28.5 -57.5q16 0 27 -12t11 -28q0 -14 -10 -28t-22 -19q-20 -7 -42 1q-19 7 -32.5 25t-13.5 41q0 64 36 115t89 72q7 3 15 3z" />
    <glyph glyph-name="uni0E48.low" unicode="&#xf70a;" horiz-adv-x="0" 
d="M-241 781h1q17 0 28.5 -12t11.5 -28v-1v-160v-1q0 -16 -11.5 -28t-28.5 -12t-28.5 12t-11.5 28v1v160v1q0 16 11.5 27.5t27.5 12.5z" />
    <glyph glyph-name="uni0E49.low" unicode="&#xf70b;" horiz-adv-x="0" 
d="M-301 721h1q16 0 28 -12q1 0 1 -1q12 -12 12 -28q0 -3 -1 -6v-51q73 13 104 75q4 9 14 15.5t20 6.5q1 1 2 1q17 0 28.5 -12t11.5 -28q0 -10 -4 -19q-17 -33 -42.5 -57.5t-54.5 -38t-56.5 -19.5t-55.5 -7q-4 -1 -7 -1q-16 0 -28 12q-1 0 -1 1q-12 12 -12 28q0 3 1 6v54
h-20h-1q-16 0 -28 11.5t-12 28.5t12 28.5t28 11.5h1h54q2 0 5 1z" />
    <glyph glyph-name="uni0E4A.low" unicode="&#xf70c;" horiz-adv-x="0" 
d="M-361 721q12 -1 39 -17.5t32 -18.5q6 3 22.5 13.5t27.5 16t19 6.5q17 0 29 -12t12 -29v-54q1 0 2 1q6 3 9 6.5t6 15.5t3 31q0 17 11.5 28.5t27.5 12.5q17 0 29 -12t12 -29q0 -43 -15.5 -74.5t-41.5 -47.5q-31 -18 -77 -18q-20 -3 -34 11q-1 0 -1 1q-14 14 -11 34v47
q-22 -13 -30 -13t-30 13v-53q0 -17 -11.5 -29t-28.5 -12t-28.5 12t-11.5 29v100q0 17 11 28q13 13 28 13z" />
    <glyph glyph-name="uni0E4B.low" unicode="&#xf70d;" horiz-adv-x="0" 
d="M-241 781h1q17 0 28.5 -12t11.5 -28v-1v-40h40h1q16 0 28 -11.5t12 -28.5t-12 -28.5t-28 -11.5h-1h-40v-40v-1q0 -16 -11.5 -28t-28.5 -12t-28.5 12t-11.5 28v1v40h-40h-1q-16 0 -28 11.5t-12 28.5t12 28.5t28 11.5h1h40v40v1q0 16 11.5 27.5t27.5 12.5z" />
    <glyph glyph-name="uni0E4C.low" unicode="&#xf70e;" horiz-adv-x="0" 
d="M-160 800q17 0 28.5 -11.5t11.5 -28.5q0 -11 -7.5 -22t-17.5 -15q-23 -9 -44.5 -35.5t-28.5 -57.5q16 0 27 -12t11 -28q0 -14 -10 -28t-22 -19q-20 -7 -42 1q-19 7 -32.5 25t-13.5 41q0 64 36 115t89 72q7 3 15 3z" />
    <glyph glyph-name="uni0E0D.descless" unicode="&#xf70f;" 
d="M479 501h1q17 0 28.5 -12t11.5 -28v-1v-330q0 -53 -38.5 -91.5t-91.5 -38.5h-84q-3 -1 -6 -1q-17 0 -29 13q-12 12 -12 28q0 3 1 6v294q0 39 -17 59q-19 21 -63 21h-60v-300q0 -24 7 -35l1 -1q11 16 31 17h1q17 0 28.5 -12t11.5 -28v-1q0 -24 -18 -42t-42 -18h-1h-1
q-24 1 -45 12t-33 30q-20 30 -20 78v305q-8 5 -14 15t-6 20q0 17 11.5 28.5t28.5 11.5h120q81 0 123 -49q37 -42 37 -111v-260h50q21 0 35.5 14.5t14.5 35.5v330v1q0 16 11.5 27.5t27.5 12.5z" />
    <glyph glyph-name="uni0E31.left" unicode="&#xf710;" horiz-adv-x="0" 
d="M-463 681h1q17 0 28.5 -12t11.5 -28v-1v-20h200h1q16 0 28 -11.5t12 -28.5t-12 -28.5t-28 -11.5h-1h-234q-3 -1 -6 -1q-16 0 -28 12q-1 0 -1 1q-12 12 -12 28q0 3 1 6v54v1q0 16 11.5 27.5t27.5 12.5z" />
    <glyph glyph-name="uni0E4D.left" unicode="&#xf711;" horiz-adv-x="0" 
d="M-340 777q49 0 84.5 -35.5t35.5 -84.5t-35.5 -84.5t-84.5 -35.5t-84.5 35.5t-35.5 84.5t35.5 84.5t84.5 35.5zM-340 697q-17 0 -28.5 -11.5t-11.5 -28.5t11.5 -28.5t28.5 -11.5t28.5 11.5t11.5 28.5t-11.5 28.5t-28.5 11.5z" />
    <glyph glyph-name="uni0E47.left" unicode="&#xf712;" 
d="M-432 780q4 0 7 -1h234q13 0 21.5 -8.5t8.5 -21.5t-8.5 -21.5t-21.5 -8.5h-200v-93l32 17q7 6 16 6h4q9 0 17 -6l31 -17v13q0 17 11.5 28.5t27.5 12.5q17 0 29 -12t12 -29v-60q0 -12 -6.5 -22.5t-18.5 -15.5q-15 -6 -23 -1.5t-36.5 20.5t-45.5 25q-17 -9 -46 -25.5
t-36 -20.5q-12 -2 -23.5 2.5t-18 15t-6.5 22.5v160q0 17 11.5 28.5t27.5 12.5z" />
    <glyph glyph-name="uni0E48.left" unicode="&#xf713;" 
d="M-321 799q12 0 21 -8.5t9 -21.5v-40q0 -13 -9 -21.5t-21 -8.5t-21 8.5t-9 21.5v40q0 13 8.5 21.5t21.5 8.5z" />
    <glyph glyph-name="uni0E49.left" unicode="&#xf714;" 
d="M-340 789q12 0 21 -8q0 -1 1 -1q8 -9 8 -21v-5v-6q28 0 42 2q30 4 42 24q9 15 26 15h1q12 0 20.5 -9t8.5 -21q0 -8 -4 -15q-27 -45 -85 -53q-18 -3 -76 -2h-5q-13 0 -22 9q-8 9 -8 21v5v5h-10q-13 0 -21.5 9t-8.5 21t8.5 21t21.5 9h35h5z" />
    <glyph glyph-name="uni0E4A.left" unicode="&#xf715;" 
d="M-366 789q9 1 17 -5l23 -11l23 11q7 5 16.5 5.5t17.5 -5.5v0q1 0 2 -1q14 -11 11 -28v-4q26 4 40 19q13 14 16 16q6 3 11.5 3.5t9.5 -0.5q9 -3 15 -9t8 -15v-1q1 -5 -1 -12q-1 -5 -5 -11q-7 -10 -17 -18q-21 -20 -47 -28q-22 -6 -55 -6h-5h-3q-11 1 -19 9q-4 4 -7 16
q-3 -3 -8 -5q-3 -1 -5 0q-6 2 -9 5q-3 -14 -12 -20q-10 -7 -21 -5.5t-18.5 10.5t-7.5 20v35q-1 9 2 17t11 13q1 1 2 1q7 4 15 4z" />
    <glyph glyph-name="uni0E4B.left" unicode="&#xf716;" 
d="M-324 789q12 0 21 -8.5t9 -21.5h10q9 0 14.5 -6t5.5 -14t-5.5 -14t-14.5 -6h-10q0 -13 -9 -21.5t-21 -8.5t-21 8.5t-9 21.5h-10q-9 0 -14.5 6t-5.5 14t5.5 14t14.5 6h10q0 13 8.5 21.5t21.5 8.5z" />
    <glyph glyph-name="uni0E4C.left" unicode="&#xf717;" 
d="M-211 802h40q13 0 21.5 -9t8.5 -21t-8.5 -21t-21.5 -9h-40q-15 0 -19 -4q-1 -1 -1 -6q0 -13 -9 -21.5t-21 -8.5t-21 8.5t-9 21.5q0 30 19 49q21 21 61 21z" />
    <glyph glyph-name="uni0E38.low" unicode="&#xf718;" horiz-adv-x="0" 
d="M-239 -185h1q17 0 28.5 -12t11.5 -28v-1v-80v-1q0 -16 -11.5 -28t-28.5 -12t-28.5 12t-11.5 28v1v60h-10q-13 0 -21.5 9t-8.5 21t8.5 21t21.5 9h40h3q3 0 6 1z" />
    <glyph glyph-name="uni0E39.low" unicode="&#xf719;" horiz-adv-x="0" 
d="M-277 -186q10 0 20 -6.5t15 -15.5l4 -9l4 9q4 9 14 15.5t20 6.5q1 1 2 1q17 0 28.5 -12t11.5 -28q0 -10 -4 -19l-37 -74q-4 -11 -14.5 -19.5t-22.5 -9.5h-1h-1.5h-0.5q-12 1 -23 9t-15 20l-36 72h-15q-13 0 -21.5 9t-8.5 21t8.5 21t21.5 9h40h3q3 1 7 1z" />
    <glyph glyph-name="uni0E3A.low" unicode="&#xf71a;" horiz-adv-x="0" 
d="M-238 -186q33 0 56.5 -23.5t23.5 -56.5t-23.5 -56.5t-56.5 -23.5t-56.5 23.5t-23.5 56.5t23.5 56.5t56.5 23.5z" />
    <glyph glyph-name="uniF71B" unicode="&#xf71b;" 
d="M16 402v-381h242v381h-242zM274 0h-274v423h274v-423z" />
    <glyph glyph-name="uni0E4D.high" unicode="&#xf71e;" horiz-adv-x="0" 
d="M-240 933q49 0 84.5 -35.5t35.5 -84.5t-35.5 -84.5t-84.5 -35.5t-84.5 35.5t-35.5 84.5t35.5 84.5t84.5 35.5zM-240 853q-17 0 -28.5 -11.5t-11.5 -28.5t11.5 -28.5t28.5 -11.5t28.5 11.5t11.5 28.5t-11.5 28.5t-28.5 11.5z" />
    <glyph glyph-name="uni0E47.high" unicode="&#xf71f;" horiz-adv-x="0" 
d="M-366 994q4 0 7 -1h213q12 0 19.5 -7.5t7.5 -19.5t-7.5 -19.5t-19.5 -7.5h-182v-85l29 16q6 5 14 5h4q8 0 16 -5l28 -16v12q0 16 10.5 26t24.5 11q16 0 26.5 -10.5t10.5 -26.5v-54q0 -11 -5.5 -21t-16.5 -14q-14 -6 -21 -1.5t-33 19t-42 22.5q-15 -8 -41.5 -23t-32.5 -19
q-11 -2 -21.5 2t-16.5 14t-6 21v145q0 15 10.5 25.5t24.5 11.5z" />
    <glyph glyph-name="uniF720" unicode="&#xf720;" horiz-adv-x="0" 
d="M-280 800q12 0 21 -8.5t9 -21.5v-100q0 -13 -9 -21.5t-21 -8.5t-21 8.5t-9 21.5v100q0 13 8.5 21.5t21.5 8.5z" />
    <glyph glyph-name="uniF721" unicode="&#xf721;" horiz-adv-x="0" 
d="M-290 800q12 0 21 -8q0 -1 1 -1q8 -9 8 -21v-5v-62q39 7 74 29.5t49 50.5q8 16 26 17h1q13 0 21.5 -8.5t8.5 -21.5q0 -7 -3 -13q-27 -53 -83 -84.5t-119 -32.5h-5q-12 0 -21 8q0 1 -1 1q-8 9 -8 21v5v65h-10q-13 0 -21.5 9t-8.5 21t8.5 21t21.5 9h35h5z" />
    <glyph glyph-name="uniF722" unicode="&#xf722;" horiz-adv-x="0" 
d="M-290 800q15 1 24 -11l16 -17l16 16q9 12 24 12q7 1 13 -3h1q8 -4 12.5 -12.5t3.5 -18.5v-61q11 4 19 11q21 19 21 54q0 12 8.5 21t21.5 9q12 1 21 -8t9 -22q0 -63 -42 -99q-31 -27 -83 -31q-17 -1 -26 8q0 1 -1 1q-8 8 -8 26v30l-10 -5l-10 5v-35q0 -13 -8.5 -21.5
t-21.5 -8.5t-21.5 8.5t-8.5 21.5v96q-1 10 3.5 18.5t13.5 13.5q6 2 13 2z" />
    <glyph glyph-name="uniF723" unicode="&#xf723;" horiz-adv-x="0" 
d="M-280 800q12 0 21 -8.5t9 -21.5v-20h20q13 0 21.5 -9t8.5 -21t-8.5 -21t-21.5 -9h-20v-20q0 -13 -9 -21.5t-21 -8.5t-21 8.5t-9 21.5v20h-20q-13 0 -21.5 9t-8.5 21t8.5 21t21.5 9h20v20q0 13 8.5 21.5t21.5 8.5z" />
    <glyph glyph-name="uniF724" unicode="&#xf724;" horiz-adv-x="0" 
d="M-189 800q12 0 20.5 -9t8.5 -21q0 -11 -7.5 -20t-18.5 -10q-25 -3 -46 -18q-7 -6 -12 -11q14 -9 14 -26q0 -9 -7 -19.5t-16 -13.5q-13 -5 -28 1q-11 4 -19.5 14.5t-9.5 24.5v0v3v1v1q1 42 42 73q33 25 74 30h4h1z" />
    <glyph glyph-name="uniF725" unicode="&#xf725;" horiz-adv-x="0" 
d="M-280 680q33 0 56.5 -23.5t23.5 -56.5t-23.5 -56.5t-56.5 -23.5t-56.5 23.5t-23.5 56.5t23.5 56.5t56.5 23.5zM-280 620q-9 0 -14.5 -5.5t-5.5 -14.5t5.5 -14.5t14.5 -5.5t14.5 5.5t5.5 14.5t-5.5 14.5t-14.5 5.5z" />
    <glyph glyph-name="quotesglleft" 
d="M140 340l-15 -8q-78 90 -97 120q-7 14 -2.5 25.5t14.5 18.5q9 5 22.5 2.5t20.5 -14.5q10 -17 57 -144z" />
    <glyph glyph-name="joker" 
d="M493 549l-18 -34q-7 11 -14 19l15 35q7 -4 17 -20zM457 586l-13 -36q-1 1 -7.5 6.5t-10.5 8.5l10 36q2 -2 21 -15zM533 506l-27 -30q-2 3 -4 7.5t-3.5 7.5l-2.5 5l22 33q9 -9 15 -23zM554 464l-32 -26q0 1 -3 8.5t-4 10.5l30 30q1 -4 9 -23zM411 613l-7 -36q-13 5 -22 7
l4 37q19 -4 25 -8zM566 421l-45 -20q0 3 -3 17l39 24q3 -11 9 -21zM359 623l-1 -37q-2 0 -11 -1t-13 -1l-3 37q5 0 14 1t13 1h1zM580 380l-51 -13l-4 16l48 17l2 -7q3 -7 5 -13zM584 340l-52 -11v13q-1 1 -1 8l52 11q1 -14 1 -21zM310 576q-10 -4 -24 -11l-8 36q7 4 25 12z
M584 295h-51v21l51 4v-25zM584 284q0 -7 -1 -24l-52 8q0 8 1 11v10zM273 549l-3.5 -3.5l-6 -6t-6.5 -7.5l-14 36q2 1 7.5 7t10.5 11zM581 241q0 -3 -2 -9.5t-2 -11.5l-51 14q0 4 1.5 9.5t1.5 6.5zM571 200q0 -2 -2 -10t-2 -10l-34 21q0 2 -4 8.5t-4 8.5zM243 515l-13 -19
l-19 31q6 8 14 21zM560 158q0 -2 -9 -21l-31 27q2 3 6 18zM210 476q0 -1 -3 -7l-6 -12l-26 27q3 9 11 22zM542 116q-2 -2 -5.5 -9t-6.5 -12l-27 31q0 1 10 19zM194 438q-3 -4 -6 -18l-32 20q4 7 9 23zM506 74l-15 -20l-18 35q7 9 11 19zM195 401q-1 -12 -2 -18l-47 16
q1 1 2 5t2.5 8t4.5 8zM190 366q0 -4 -1.5 -9.5t-1.5 -6.5l-50 9l1 20zM475 34q-9 -6 -21 -17l-12 38q1 1 17 16zM186 333v-17l-52 4q0 6 1 20zM186 279l-51 5q-1 1 -1 16h52v-21zM437 3q-3 -1 -11 -3.5t-14 -4.5l-6 35q16 7 22 10zM189 250l-52 -9q0 2 -0.5 8.5t-0.5 12.5
l50 5q0 -5 3 -17zM194 218l-47 -16q-7 15 -7 18l51 14zM386 -12q-18 -2 -27 -2h-1v35q10 0 24 2zM189 182l-31 -22l-6 20l32 20q5 -11 5 -18zM334 23l4 -34q-19 2 -34 7l-4 34q17 -6 34 -7zM203 145l-27 -27q-9 16 -10 22l30 23q0 -3 3 -9t4 -9zM223 106l-21 -30
q-1 1 -4 6.5t-6 9.5t-4 6l24 28q9 -11 11 -20zM293 40l-9 -35l-21 15l12 35q2 -2 4.5 -3.5t6.5 -5t7 -6.5zM258 70l-13 -32q-9 8 -17 18l17 32q2 -5 7 -11t6 -7z" />
  </font>
</defs>
</svg>
